<?xml version="1.0" encoding="utf-8"?>
<!-- Generator: Adobe Illustrator 24.1.1, SVG Export Plug-In . SVG Version: 6.00 Build 0)  -->
<svg version="1.1" id="Layer_1" xmlns="http://www.w3.org/2000/svg" xmlns:xlink="http://www.w3.org/1999/xlink" x="0px" y="0px"
	 viewBox="0 0 143 25" style="enable-background:new 0 0 143 25;" xml:space="preserve">
<style type="text/css">
	.st0{fill:url(#SVGID_1_);}
	.st1{fill:#5A9367;}
</style>
<g>
	<path d="M16.4,18.3c0,3-2.9,5.8-7.6,5.8c-4.3,0-7-2.1-7.9-4.8l3.2-1.6c0.6,1.7,2.3,3.1,4.6,3.1c1.7,0,3.7-0.8,3.7-2.3
		c0-4.1-11.1-0.8-11.1-8c0-3.5,3.7-5.6,7.3-5.6c4.6,0,6.7,2.5,7.5,3.9l-3.1,1.5C12.3,9,11,8.2,8.7,8.2c-2.7,0-3.4,1.6-3.4,2.3
		C5.3,14.2,16.4,11.1,16.4,18.3z"/>
	<path d="M29.4,23.8L29.3,16h-6.6l0.1,7.8h-4L18.7,7.4c0-1.1,0.9-2,2-2h0c1.1,0,2,0.9,2,2l0,5.3h6.5l0-5.2c0-1.1,0.9-2,2-2h0
		c1.1,0,2,0.9,2,2l0.1,16.4H29.4z"/>
	<path d="M52.9,14.8c0,5.5-4,9.2-9,9.2c-5.1,0-9.2-3.7-9.2-9.2c0-5.6,4-9.2,9.1-9.2C48.8,5.5,52.9,9.2,52.9,14.8z M49,14.8
		c0-3.2-2.1-5.3-5.2-5.3c-3.2,0-5.2,2.1-5.1,5.3c0,3.1,2.1,5.2,5.2,5.2C47,20,49,17.9,49,14.8z"/>
	<path d="M62.5,17.1h-4l0.1,6.7h-3.9L54.5,7.6c0-1.2,1-2.2,2.2-2.2h5.4c3.5,0,6.3,2.4,6.3,5.8C68.4,14.5,65.7,17.1,62.5,17.1z
		 M64.5,11.2c0-1.4-1.2-2.5-2.6-2.5h-3.4l0,4.8h3.6C63.4,13.5,64.5,12.5,64.5,11.2z"/>
	<path d="M112.4,18.4c0,3.3-2.6,5.5-6,5.5h-8L98.3,8c0-1.4,1.1-2.5,2.5-2.5h5.5c3,0,5.5,2.3,5.5,5.1c0,1.3-0.5,2.5-1.3,3.5
		C111.7,15.2,112.4,16.7,112.4,18.4z M102.2,8.8l0,4h3.7c1,0,1.8-0.9,1.8-2.1c0-1-0.8-1.8-1.9-1.8H102.2z M107.8,16.1
		C107.8,16.1,107.8,16.1,107.8,16.1l-5.5,0l0,4.4h3.7C108,20.5,109.5,18.8,107.8,16.1z"/>
	<path d="M129.2,21c-1.1,1.8-2.3,2.8-6.1,2.8H117c-1.2,0-2.2-1-2.3-2.2l-0.1-14.1c0-1.1,0.9-2,2-2l0,0c1.1,0,2,0.9,2,2l0.1,13.1h4.5
		c1.4,0,2.2-0.1,2.9-1L129.2,21z"/>
	<path d="M136.5,23.8h-4l-0.1-8.4l-5.9-9.9h4.4l3.3,6l3.2-6h4.4l-5.5,9.9L136.5,23.8z"/>
	<g>
		<linearGradient id="SVGID_1_" gradientUnits="userSpaceOnUse" x1="85.6675" y1="8.4139" x2="94.9275" y2="8.4139">
			<stop  offset="0" style="stop-color:#396B53"/>
			<stop  offset="1" style="stop-color:#46755F"/>
		</linearGradient>
		<path class="st0" d="M88.1,10.3C88.1,10.3,88.1,10.3,88.1,10.3c-0.1,0.1-0.2,0.2-0.2,0.2c0,0-0.1,0.1-0.1,0.1c0,0-0.1,0.1-0.1,0.1
			c-0.1,0.1-0.1,0.1-0.2,0.2c0,0,0,0,0,0c-0.1,0.1-0.2,0.1-0.3,0.2h1.6c3,0,5.8-2.4,6.2-5.5h-4.8L90,6.6C90,6.6,89.6,8.6,88.1,10.3z
			"/>
		<path class="st1" d="M91.5,14.4H80.2l1.6-11.2c0.2-1.2-0.7-2.2-1.9-2.2c-1.2,0-2.4,1-2.6,2.2L77,5.4h-2.2c-1.2,0-2.4,1-2.6,2.2
			c-0.2,1.2,0.7,2.2,1.9,2.2h2.2l-0.6,4.5h-2.2c-1.2,0-2.4,1-2.6,2.2c-0.2,1.2,0.7,2.2,1.9,2.2h2.2l-0.4,2.6
			c-0.2,1.2,0.7,2.2,1.9,2.2h0c1.2,0,2.4-1,2.6-2.2l0.4-2.6h4.5l-0.4,2.6c-0.2,1.2,0.7,2.2,1.9,2.2c1.2,0,2.4-1,2.6-2.2l0.4-2.6h2.2
			c1.2,0,2.4-1,2.6-2.2C93.6,15.4,92.7,14.4,91.5,14.4z"/>
		<path class="st1" d="M90.8,0.9c-3.1,0-6,2.5-6.5,5.7l-0.6,3.9c0,0,2.9-2.4,4-5.3c0,0-0.2,3.2-3.8,7c0,0,0,0,0,0
			c1.3-0.1,2.3-0.5,3.1-1.1c0.1-0.1,0.2-0.1,0.3-0.2c0,0,0,0,0,0c0.1-0.1,0.1-0.1,0.2-0.2c0,0,0.1-0.1,0.1-0.1c0,0,0.1-0.1,0.1-0.1
			c0.1-0.1,0.1-0.1,0.2-0.2c0,0,0,0,0.1-0.1C89.6,8.6,90,6.6,90,6.6l0.1-0.9L90.8,0.9L90.8,0.9z"/>
	</g>
</g>
</svg>
