<?xml version="1.0" encoding="utf-8"?>
<!-- Generator: Adobe Illustrator 26.5.0, SVG Export Plug-In . SVG Version: 6.00 Build 0)  -->
<svg version="1.1" id="레이어_1" xmlns="http://www.w3.org/2000/svg" xmlns:xlink="http://www.w3.org/1999/xlink" x="0px"
	 y="0px" viewBox="0 0 100 95.1" style="enable-background:new 0 0 100 95.1;" xml:space="preserve">
<style type="text/css">
	.st0{fill:url(#SVGID_1_);}
	.st1{fill:#5A9367;}
</style>
<g>
	<linearGradient id="SVGID_1_" gradientUnits="userSpaceOnUse" x1="61.4216" y1="31.292" x2="99.9999" y2="31.292">
		<stop  offset="0" style="stop-color:#396B53"/>
		<stop  offset="1" style="stop-color:#46755F"/>
	</linearGradient>
	<path class="st0" d="M71.6,39.1c-0.1,0.1-0.2,0.2-0.2,0.2c-0.2,0.2-0.4,0.4-0.7,0.7c-0.2,0.2-0.4,0.3-0.5,0.5
		c-0.1,0.1-0.3,0.3-0.4,0.4c-0.3,0.3-0.6,0.5-0.9,0.8c0,0-0.1,0.1-0.1,0.1c-0.4,0.3-0.8,0.6-1.2,0.9H74c12.6,0,24.2-10.2,26-22.8
		H80.1l-0.5,3.7C79.5,23.7,77.8,32.3,71.6,39.1z"/>
	<path class="st1" d="M85.6,56.1H38.8l6.6-46.8c0.7-5.2-2.9-9.4-8-9.4c-5.2,0-9.9,4.2-10.7,9.4l-1.3,9.4H16c-5.2,0-9.9,4.2-10.7,9.4
		c-0.7,5.2,2.9,9.4,8,9.4h9.4l-2.6,18.7h-9.4c-5.2,0-9.9,4.2-10.7,9.4c-0.7,5.2,2.9,9.4,8,9.4h9.4l-1.7,11c-0.7,5.2,2.9,9.4,8,9.4h0
		c5.2,0,9.9-4.2,10.7-9.4l1.7-11h18.7l-1.7,11c-0.7,5.2,2.9,9.4,8,9.4c5.2,0,9.9-4.2,10.7-9.4l1.7-11H83c5.2,0,9.9-4.2,10.7-9.4
		C94.3,60.3,90.7,56.1,85.6,56.1z"/>
	<path class="st1" d="M82.8,0c-13.1,0-25.1,10.6-27,23.7L53.6,40c0,0,12-10,16.9-22.1c0,0-0.7,13.5-15.8,29.3c0,0,0,0-0.1,0.1
		c5.4-0.4,9.6-2.1,13-4.6c0.4-0.3,0.8-0.6,1.2-0.9c0,0,0.1-0.1,0.1-0.1c0.3-0.3,0.6-0.5,0.9-0.8c0.1-0.1,0.3-0.3,0.4-0.4
		c0.2-0.2,0.4-0.3,0.5-0.5c0.2-0.2,0.4-0.4,0.7-0.7c0.1-0.1,0.2-0.2,0.2-0.2c6.2-6.8,7.9-15.4,7.9-15.4l0.5-3.7L82.8,0L82.8,0z"/>
</g>
</svg>
