<?xml version="1.0" encoding="utf-8"?>
<!-- Generator: Adobe Illustrator 24.1.1, SVG Export Plug-In . SVG Version: 6.00 Build 0)  -->
<svg version="1.1" id="Layer_1" xmlns="http://www.w3.org/2000/svg" xmlns:xlink="http://www.w3.org/1999/xlink" x="0px" y="0px"
	 viewBox="0 0 200 111.2" enable-background="new 0 0 200 111.2" xml:space="preserve">
<g>
	<path fill="#231F20" d="M116.6,107.2c0.8-51.6,28.2-79.1,79.8-79.8c2,0,3.6,1.6,3.5,3.5c-0.8,51.6-28.2,79.1-79.8,79.8
		C118.2,110.7,116.6,109.1,116.6,107.2z"/>
	<path fill="#231F20" d="M39.3,37.3c37.3,12.4,59.9,42,71.9,63.2C108.1,35.5,71.7,1,4.9,0C2.3,0,0.1,2.2,0.2,4.7
		c1,68.5,37.2,105.1,105.3,106.5C87.3,62.8,39.3,37.3,39.3,37.3z"/>
</g>
</svg>
