<?xml version="1.0" encoding="utf-8"?>
<!-- Generator: Adobe Illustrator 24.1.1, SVG Export Plug-In . SVG Version: 6.00 Build 0)  -->
<svg version="1.1" id="Layer_1" xmlns="http://www.w3.org/2000/svg" xmlns:xlink="http://www.w3.org/1999/xlink" x="0px" y="0px"
	 viewBox="0 0 40 40" style="enable-background:new 0 0 40 40;" xml:space="preserve">
<style type="text/css">
	.st0{fill:#F0BC5E;}
	.st1{fill:#896A4E;}
	.st2{fill:#BA8E49;}
	.st3{fill:#FFFFFF;}
	.st4{fill:#41424C;}
</style>
<g>
	<g>
		<path class="st0" d="M21,36.9h-1.3c-1.7,0-3.1-1.1-3.6-2.6l0,0h-2.1c-0.7,0-1.3-0.6-1.3-1.3s-0.6-1.3-1.3-1.3H8.8H6.9H1.8
			c-0.7,0-1.3,0.6-1.3,1.3s0.6,1.3,1.3,1.3h4.5c0.7,0,1.3,0.6,1.3,1.3v0.6c0,0.7,0.6,1.3,1.3,1.3H11c0.5,0,1,0.4,1,1s0.4,1,1,1h8
			c0.7,0,1.3-0.6,1.3-1.3C22.2,37.5,21.7,36.9,21,36.9z"/>
	</g>
	<polygon class="st0" points="23.9,24.7 25.3,22.8 23.9,20.9 22,20.9 20.5,22.8 22,24.7 	"/>
	<path class="st1" d="M18.7,11.1H36l1-1.9c0.1-0.2,0.2-0.5,0.2-0.7c0-0.9-0.7-1.6-1.6-1.6H19.1c-0.9,0-1.6,0.7-1.6,1.6
		c0,0.2,0.1,0.5,0.2,0.7L18.7,11.1z"/>
	<path class="st2" d="M8.8,3.1c0-0.7-0.6-1.3-1.3-1.3c-0.7,0-1.3,0.6-1.3,1.3V21h2.6V3.1z"/>
	<polygon class="st0" points="21.9,26 20.5,27.9 21.9,29.9 23.8,29.9 25.3,27.9 23.8,26 	"/>
	<path class="st0" d="M36.8,12.5H17.9l-0.7,0.8c-0.5,0.6-0.7,1.3-0.7,2v1.8h17.9v16.6H16.5c0.3,1.5,1.6,2.6,3.1,2.6H35
		c1.8,0,3.2-1.4,3.2-3.2V15.3c0-0.7-0.3-1.5-0.7-2L36.8,12.5z"/>
	<path class="st3" d="M33.1,18.4H16.5v14.1h16.6V18.4z M29,28.6h-2.6l-1.9,2.5h-3.2l-2.4-3.2l1.9-2.6l-1.9-2.5l2.4-3.2h3.2l2,2.6H29
		l2.4,3.2L29,28.6z"/>
	<polygon class="st0" points="26.4,23.5 25,25.4 26.4,27.4 28.3,27.4 29.8,25.4 28.3,23.5 	"/>
	<path class="st4" d="M37.5,11.3L37.5,11.3l0.7-1.5c0.2-0.4,0.3-0.9,0.3-1.3c0-1.6-1.3-3-3-3H19.1c-1.6,0-3,1.3-3,3
		c0,0.5,0.1,0.9,0.3,1.3l0.8,1.6l0,0l-1,1.1c-0.7,0.8-1,1.8-1,2.9v17.8c0,2.5,2,4.5,4.5,4.5H35c2.5,0,4.5-2,4.5-4.5V15.3
		c0-1-0.4-2.1-1-2.9L37.5,11.3z M19.1,6.9h16.5c0.9,0,1.6,0.7,1.6,1.6c0,0.2-0.1,0.5-0.2,0.7l-1,1.9H18.7l-1-1.9
		c-0.1-0.2-0.2-0.5-0.2-0.7C17.5,7.6,18.2,6.9,19.1,6.9z M16.5,32.5V18.4h16.6v14.1H16.5z M38.2,33.1c0,1.8-1.4,3.2-3.2,3.2H19.7
		c-1.5,0-2.8-1.1-3.1-2.6h17.8V17.1H16.5v-1.8c0-0.7,0.3-1.5,0.7-2l0.7-0.8h18.9l0.7,0.8c0.5,0.6,0.7,1.3,0.7,2V33.1z"/>
	<path class="st4" d="M26.5,22.2l-2-2.6h-3.2l-2.4,3.2l1.9,2.5l-1.9,2.6l2.4,3.2h3.2l1.9-2.5H29l2.4-3.2L29,22.2H26.5z M20.5,22.8
		l1.4-1.9h1.9l1.4,1.9l-1.4,1.9H22L20.5,22.8z M23.8,29.9h-1.9l-1.4-1.9l1.4-1.9h1.9l1.4,1.9L23.8,29.9z M28.3,27.4h-1.9L25,25.4
		l1.4-1.9h1.9l1.4,1.9L28.3,27.4z"/>
	<path class="st4" d="M11.2,23.6c0.1-0.2,0.1-0.5,0.1-0.7c0-0.8-0.5-1.5-1.3-1.8v-18c0-1.4-1.1-2.6-2.6-2.6S5,1.6,5,3.1v18
		c-0.7,0.3-1.3,1-1.3,1.8c0,0.3,0.1,0.5,0.1,0.7c-0.8,0.2-1.4,1-1.4,1.8c0,0.5,0.2,0.9,0.5,1.3c-0.3,0.3-0.5,0.8-0.5,1.3
		c0,0.9,0.6,1.6,1.4,1.8c-0.1,0.2-0.1,0.5-0.1,0.7c0,1.1,0.9,1.9,1.9,1.9h3.8c1.1,0,1.9-0.9,1.9-1.9c0-0.3-0.1-0.5-0.1-0.7
		c0.8-0.2,1.4-1,1.4-1.8c0-0.5-0.2-0.9-0.5-1.3c0.3-0.3,0.5-0.8,0.5-1.3C12.6,24.6,12,23.8,11.2,23.6z M6.3,3.1
		c0-0.7,0.6-1.3,1.3-1.3c0.7,0,1.3,0.6,1.3,1.3V21H6.3V3.1z M5.6,22.2h3.8c0.4,0,0.6,0.3,0.6,0.6c0,0.4-0.3,0.6-0.6,0.6H5.6
		c-0.4,0-0.6-0.3-0.6-0.6C5,22.5,5.3,22.2,5.6,22.2z M9.5,31.2H5.6c-0.4,0-0.6-0.3-0.6-0.6c0-0.4,0.3-0.6,0.6-0.6h3.8
		c0.4,0,0.6,0.3,0.6,0.6C10.1,30.9,9.8,31.2,9.5,31.2z M10.7,28.6H9.5H5.6H4.3c-0.4,0-0.6-0.3-0.6-0.6c0-0.4,0.3-0.6,0.6-0.6h6.4
		c0.4,0,0.6,0.3,0.6,0.6C11.4,28.3,11.1,28.6,10.7,28.6z M10.7,26.1H4.3c-0.4,0-0.6-0.3-0.6-0.6c0-0.4,0.3-0.6,0.6-0.6h1.3h3.8h1.3
		c0.4,0,0.6,0.3,0.6,0.6C11.4,25.8,11.1,26.1,10.7,26.1z"/>
	<path class="st2" d="M10.7,24.8H9.5H5.6H4.3c-0.4,0-0.6,0.3-0.6,0.6c0,0.4,0.3,0.6,0.6,0.6h6.4c0.4,0,0.6-0.3,0.6-0.6
		C11.4,25.1,11.1,24.8,10.7,24.8z"/>
	<path class="st2" d="M10.7,27.4H4.3c-0.4,0-0.6,0.3-0.6,0.6c0,0.4,0.3,0.6,0.6,0.6h1.3h3.8h1.3c0.4,0,0.6-0.3,0.6-0.6
		C11.4,27.6,11.1,27.4,10.7,27.4z"/>
	<path class="st2" d="M9.5,29.9H5.6c-0.4,0-0.6,0.3-0.6,0.6c0,0.4,0.3,0.6,0.6,0.6h3.8c0.4,0,0.6-0.3,0.6-0.6
		C10.1,30.2,9.8,29.9,9.5,29.9z"/>
	<path class="st2" d="M5.6,23.5h3.8c0.4,0,0.6-0.3,0.6-0.6c0-0.4-0.3-0.6-0.6-0.6H5.6c-0.4,0-0.6,0.3-0.6,0.6
		C5,23.2,5.3,23.5,5.6,23.5z"/>
</g>
</svg>
