<?xml version="1.0" encoding="utf-8"?>
<!-- Generator: Adobe Illustrator 24.1.1, SVG Export Plug-In . SVG Version: 6.00 Build 0)  -->
<svg version="1.1" id="Layer_1" xmlns="http://www.w3.org/2000/svg" xmlns:xlink="http://www.w3.org/1999/xlink" x="0px" y="0px"
	 viewBox="0 0 40 40" style="enable-background:new 0 0 40 40;" xml:space="preserve">
<style type="text/css">
	.st0{fill:#FFFFFF;stroke:#41424C;stroke-width:1.5517;}
	.st1{fill:#F9BA8F;stroke:#41424C;stroke-width:1.5517;}
	.st2{fill:#A05555;stroke:#41424C;stroke-width:1.5517;}
	.st3{fill:#F78F8F;stroke:#41424C;stroke-width:1.5517;}
	.st4{fill:#FFD7D7;stroke:#41424C;stroke-width:1.5517;}
</style>
<g>
	<g>
		<path class="st0" d="M1.7,15.3c0-5.1,4.2-13.2,9.5-13.2s9.5,8,9.5,13.2c0,5.1-4.2,9.3-9.5,9.3S1.7,20.4,1.7,15.3z"/>
		<path class="st1" d="M16.5,16.7c0,2.8-2.4,5.1-5.3,5.1c-2.9,0-5.3-2.3-5.3-5.1c0-2.8,2.4-5.1,5.3-5.1
			C14.1,11.6,16.5,13.9,16.5,16.7z"/>
	</g>
	<path class="st2" d="M3.7,28.1v4c0.8,3,6.8,8,23,4.7c7.9-1.6,10.9-4.5,11.5-7.5v-5"/>
	<path class="st3" d="M13.4,20.2c0,0-1.8,1.2-4.9,1.8c-3.1,0.6-5.1,2.5-4.9,5.2c0.1,2.8,5.7,9.7,23,5.5c15.4-3.7,13-11.6,7.3-15.5
		C28.9,13.9,22.1,12.4,13.4,20.2z"/>
	<path class="st4" d="M32.2,20.9c0.2,1.7-1.9,3.3-4.6,3.6c-2.7,0.3-5.1-0.8-5.3-2.5c-0.2-1.7,1.9-3.3,4.6-3.6
		C29.6,18.2,32,19.3,32.2,20.9z"/>
</g>
</svg>
