<?xml version="1.0" encoding="utf-8"?>
<!-- Generator: Adobe Illustrator 24.1.1, SVG Export Plug-In . SVG Version: 6.00 Build 0)  -->
<svg version="1.1" id="Layer_1" xmlns="http://www.w3.org/2000/svg" xmlns:xlink="http://www.w3.org/1999/xlink" x="0px" y="0px"
	 viewBox="0 0 40 40" style="enable-background:new 0 0 40 40;" xml:space="preserve">
<style type="text/css">
	.st0{fill:#CE1800;stroke:#41424C;stroke-width:1.9016;stroke-linecap:round;stroke-linejoin:round;stroke-miterlimit:10;}
	.st1{fill:none;stroke:#41424C;stroke-width:1.9016;stroke-linecap:round;stroke-linejoin:round;stroke-miterlimit:10;}
	.st2{fill:#FF5B00;}
	.st3{fill:#FF2B08;}
</style>
<g>
	<g>
		<path class="st0" d="M13.8,36.2c0,0,4.7,5.2,13-0.8l-0.9-13.5L14.7,21L13.8,36.2z"/>
		<path class="st1" d="M22.7,14.4c0,0,1.5,1.4,5.1,1.1"/>
		<path class="st2" d="M21.9,36.1c0,0,7.7,2.8,10.7-8.6c0,0,5.9-2,3.1-7.9c0,0,0.4-3.7-2.3-6.7c0,0,0.2-2.8-2.7-4.4
			c0,0,0.9-2.1-0.7-3C28.2,4.6,26,6.2,26,6.2s-0.3-1.8-2.8-1.9c-2.4-0.1-2.5,1.8-2.5,1.8s-4.4-1.2-5.5,3.7c0,0-2.7,0.6-2.2,4.4
			s4.4,5.1,4.4,5.1s-2.6-0.1-3.5,2.5c0,0,6.7-0.5,8.4,3.7c0,0,1.1,2.6-1.2,5.9C21.1,31.4,19.2,34.5,21.9,36.1z"/>
		<path class="st1" d="M21.9,36.1c0,0,7.7,2.8,10.7-8.6c0,0,5.9-2,3.1-7.9c0,0,0.4-3.7-2.3-6.7c0,0,0.2-2.8-2.7-4.4
			c0,0,0.9-2.1-0.7-3C28.2,4.6,26,6.2,26,6.2s-0.3-1.8-2.8-1.9c-2.4-0.1-2.5,1.8-2.5,1.8s-4.4-1.2-5.5,3.7c0,0-2.7,0.6-2.2,4.4
			s4.4,5.1,4.4,5.1s-2.6-0.1-3.5,2.5c0,0,6.7-0.5,8.4,3.7c0,0,1.1,2.6-1.2,5.9C21.1,31.4,19.2,34.5,21.9,36.1z"/>
		<path class="st1" d="M24,9.9c0,0,10.6,6.6-2.1,26.1"/>
		<path class="st1" d="M31.5,20.8c0,0-1.5,2-3.6,1.6"/>
		<path class="st3" d="M15.5,36.1c0,0-7.8,1.6-8.9-11.1c0,0-5.4-3.2-1.7-9c0,0,0.1-4,3.3-6.7c0,0,0.2-3,3.3-4.2c0,0-0.5-2.4,1.2-3.1
			s3.6,1.4,3.6,1.4s0.6-1.9,2.9-1.5s2.2,2.4,2.2,2.4s4.5-0.5,4.8,4.9c0,0,2.5,1.1,1.4,5.1c-1.1,4-5,4.7-5,4.7s2.5,0.3,3,3.3
			c0,0-6.4-1.7-8.6,2.4c0,0-1.4,2.6,0.2,6.5C17.1,31.3,18.3,34.9,15.5,36.1z"/>
		<path class="st1" d="M15.5,36.1c0,0-7.8,1.6-8.9-11.1c0,0-5.4-3.2-1.7-9c0,0,0.1-4,3.3-6.7c0,0,0.2-3,3.3-4.2c0,0-0.5-2.4,1.2-3.1
			s3.6,1.4,3.6,1.4s0.6-1.9,2.9-1.5s2.2,2.4,2.2,2.4s4.5-0.5,4.8,4.9c0,0,2.5,1.1,1.4,5.1c-1.1,4-5,4.7-5,4.7s2.5,0.3,3,3.3
			c0,0-6.4-1.7-8.6,2.4c0,0-1.4,2.6,0.2,6.5C17.1,31.3,18.3,34.9,15.5,36.1z"/>
		<path class="st1" d="M17.6,7.7c0,0-11.2,5.2-2,28.4"/>
		<path class="st1" d="M15.2,20.3c0,0-0.5,2.3-2.9,4.5"/>
		<path class="st1" d="M17.8,12.5c0,0-1.4,1.5-5,1.2"/>
	</g>
	<path class="st1" d="M8.7,18c0,0,1.1,2.4,3.2,2.3"/>
</g>
</svg>
