<?xml version="1.0" encoding="utf-8"?>
<!-- Generator: Adobe Illustrator 24.1.1, SVG Export Plug-In . SVG Version: 6.00 Build 0)  -->
<svg version="1.1" id="Layer_1" xmlns="http://www.w3.org/2000/svg" xmlns:xlink="http://www.w3.org/1999/xlink" x="0px" y="0px"
	 viewBox="0 0 40 40" style="enable-background:new 0 0 40 40;" xml:space="preserve">
<style type="text/css">
	.st0{fill:#FFFFFF;}
	.st1{fill:#C2B59B;}
	.st2{fill:#D1D1D1;}
	.st3{fill:#AF9D7D;}
	.st4{fill:#7D9950;stroke:#41424C;stroke-width:1.3283;stroke-linecap:round;stroke-linejoin:round;stroke-miterlimit:10;}
	.st5{fill:#41424C;}
	.st6{fill:none;stroke:#41424C;stroke-width:1.3283;stroke-linecap:round;stroke-miterlimit:10;}
	.st7{fill:#A52E2B;}
	.st8{fill:none;stroke:#41424C;stroke-width:1.3283;stroke-miterlimit:10;}
	.st9{fill:none;stroke:#F47F45;stroke-width:0.4096;stroke-linecap:round;stroke-miterlimit:10;}
</style>
<g>
	<path class="st0" d="M25.8,18.4c3,0.2,6.7,0.1,10.2-0.1c-0.1-0.5-0.2-0.9-0.3-1.4c0-0.2,0.1-0.5,0.1-0.7c0.1-1.5,0.2-2.8,0.2-4.1
		c0-2.1,0-4,0.7-6.2c-0.9-0.1-1.7-0.2-2.6-0.2c-2.6-0.3-5.4-0.6-10.5-0.6c-5,0-7.9,0.3-10.5,0.6c-0.9,0.1-1.7,0.2-2.6,0.2
		C11,8.2,11,10,11,12.2c0,1.3,0,2.6,0.2,4.1c0.1,1,0.2,1.9,0.4,2.7C15.5,18.5,20.9,18.1,25.8,18.4z"/>
	<path class="st1" d="M36.5,21.7c-0.1-1.2-0.3-2.4-0.5-3.4c-3.5,0.2-7.2,0.3-10.2,0.1c-4.9-0.3-10.3,0.1-14.2,0.5
		c0.1,0.7,0.3,1.4,0.5,2c0,0.2-0.1,0.5-0.1,0.7c-0.1,1.5-0.2,2.8-0.2,4.1c0,2.1,0,4-0.7,6.2c0.9,0.1,1.7,0.2,2.6,0.2
		c2.6,0.3,5.4,0.6,10.5,0.6c5,0,7.9-0.3,10.5-0.6c0.9-0.1,1.7-0.2,2.6-0.2c-0.6-2.2-0.6-4-0.7-6.2C36.7,24.5,36.6,23.2,36.5,21.7z"
		/>
	<path class="st2" d="M23.5,7.1c5,0,7.9,0.3,10.5,0.6c0.8,0.1,1.5,0.1,2.2,0.2c0.1-0.6,0.2-1.2,0.4-1.9c-0.9-0.1-1.7-0.2-2.6-0.2
		c-2.6-0.3-5.4-0.6-10.5-0.6c-5,0-7.9,0.3-10.5,0.6c-0.9,0.1-1.7,0.2-2.6,0.2c0.2,0.6,0.3,1.3,0.4,1.9c0.7-0.1,1.5-0.1,2.2-0.2
		C15.5,7.4,18.4,7.1,23.5,7.1z"/>
	<path class="st3" d="M24.2,30.9c-5,0-7.9-0.3-10.5-0.6c-0.8-0.1-1.5-0.1-2.2-0.2c-0.1,0.6-0.2,1.2-0.4,1.9c0.9,0.1,1.7,0.2,2.6,0.2
		c2.6,0.3,5.4,0.6,10.5,0.6c5,0,7.9-0.3,10.5-0.6c0.9-0.1,1.7-0.2,2.6-0.2c-0.2-0.6-0.3-1.3-0.4-1.9c-0.7,0.1-1.5,0.1-2.2,0.2
		C32.1,30.6,29.3,30.9,24.2,30.9z"/>
	<polyline class="st4" points="27.4,4.8 27.4,11 33.7,11.3 33.7,5.4 	"/>
	<path class="st5" d="M38.9,32.4c-0.8-2.3-0.8-4.3-0.8-6.6c0-1.3,0-2.6-0.2-4.2c-0.2-1.8-0.5-3.4-0.8-4.7c0-0.2,0-0.3,0.1-0.5
		c0.1-1.6,0.2-2.9,0.2-4.2c0-2.3,0-4.2,0.8-6.6l0.3-0.8l-0.9-0.1c-1.2-0.1-2.3-0.2-3.5-0.3c-2.6-0.3-5.5-0.6-10.6-0.6
		s-8,0.3-10.6,0.6c-1.2,0.1-2.3,0.2-3.5,0.3L8.5,4.7l0.3,0.8c0.8,2.3,0.8,4.3,0.8,6.6c0,1.3,0,2.6,0.2,4.2c0.2,1.8,0.5,3.4,0.8,4.7
		c0,0.2,0,0.3-0.1,0.5c-0.1,1.6-0.2,2.9-0.2,4.2c0,2.3,0,4.2-0.8,6.6l-0.3,0.8l0.9,0.1c1.2,0.1,2.3,0.2,3.5,0.3
		c2.6,0.3,5.5,0.6,10.6,0.6c5.1,0,8-0.3,10.6-0.6c1.2-0.1,2.3-0.2,3.5-0.3l0.9-0.1L38.9,32.4z M34.7,32.2c-2.6,0.3-5.4,0.6-10.5,0.6
		c-5,0-7.9-0.3-10.5-0.6C12.8,32.1,12,32,11.1,32c0.4-1.3,0.5-2.5,0.6-3.8c0-0.8,0.1-1.6,0.1-2.4c0-0.3,0-0.5,0-0.8
		c0-0.1,0-0.1,0-0.2c0-1,0.1-2,0.2-3.1c0-0.2,0.1-0.5,0.1-0.7c-0.3-1.1-0.6-2.4-0.7-3.8c0-0.3-0.1-0.6-0.1-0.9
		C11,14.7,11,13.4,11,12.2c0-2.1,0-4-0.7-6.2c0.9-0.1,1.7-0.2,2.6-0.2c2.6-0.3,5.4-0.6,10.5-0.6c5,0,7.9,0.3,10.5,0.6
		c0.9,0.1,1.7,0.2,2.6,0.2C36.2,7.3,36,8.5,36,9.7c0,0.8-0.1,1.6-0.1,2.4c0,0.3,0,0.5,0,0.8c0,0.1,0,0.1,0,0.2c0,1-0.1,2-0.2,3.1
		c0,0.2-0.1,0.5-0.1,0.7c0.3,1.1,0.6,2.4,0.7,3.8c0,0.3,0.1,0.6,0.1,0.9c0.1,1.5,0.2,2.8,0.2,4.1c0,2.1,0,4,0.7,6.2
		C36.4,32,35.6,32.1,34.7,32.2z"/>
	<g>
		<path class="st2" d="M31.2,16.7c-5-0.2-10.1-0.2-15.1,0c-0.3,0-0.5-0.2-0.5-0.5c0-0.5-0.1-1.1-0.1-1.6c0-0.3,0.2-0.5,0.5-0.5
			c5.1-0.2,10.2-0.2,15.3,0c0.3,0,0.5,0.2,0.5,0.5c0,0.5-0.1,1.1-0.1,1.6C31.7,16.5,31.4,16.7,31.2,16.7z"/>
	</g>
	<g>
		<g>
			<line class="st6" x1="3.7" y1="11.2" x2="8.1" y2="27.7"/>
			<line class="st6" x1="6.8" y1="10.4" x2="9.3" y2="27.3"/>
		</g>
		<path class="st7" d="M3,26.8l0.5,7.6c0,0.6,0.5,1.1,1.1,1.1h8.9c0.6,0,1.1-0.5,1.1-1.1l0.5-7.6H3z"/>
		<polygon class="st0" points="15.4,20.5 2.6,20.5 3,26.8 15,26.8 		"/>
		<line class="st6" x1="1.5" y1="20.5" x2="16.5" y2="20.5"/>
		<g>
			<line class="st6" x1="5.1" y1="22.8" x2="5.1" y2="24.7"/>
			<line class="st6" x1="7.1" y1="22.8" x2="7.1" y2="24.7"/>
			<line class="st6" x1="9" y1="22.8" x2="9" y2="24.7"/>
			<line class="st6" x1="10.9" y1="22.8" x2="10.9" y2="24.7"/>
			<line class="st6" x1="12.9" y1="22.8" x2="12.9" y2="24.7"/>
		</g>
		<path class="st8" d="M2.6,20.5L3,26.8l0.5,7.6c0,0.6,0.5,1.1,1.1,1.1h8.9c0.6,0,1.1-0.5,1.1-1.1l0.5-7.6l0.4-6.3H2.6z"/>
	</g>
	<g>
		<g>
			<path class="st9" d="M5.9,28.7c0.6,0,0.6,0.7,1.3,0.7c0.6,0,0.6-0.7,1.3-0.7c0.6,0,0.6,0.7,1.3,0.7c0.6,0,0.6-0.7,1.3-0.7
				c0.6,0,0.6,0.7,1.3,0.7"/>
		</g>
		<g>
			<path class="st9" d="M5.9,29.9c0.6,0,0.6,0.7,1.3,0.7c0.6,0,0.6-0.7,1.3-0.7c0.6,0,0.6,0.7,1.3,0.7c0.6,0,0.6-0.7,1.3-0.7
				c0.6,0,0.6,0.7,1.3,0.7"/>
		</g>
		<g>
			<path class="st9" d="M5.9,31.1c0.6,0,0.6,0.7,1.3,0.7c0.6,0,0.6-0.7,1.3-0.7c0.6,0,0.6,0.7,1.3,0.7c0.6,0,0.6-0.7,1.3-0.7
				c0.6,0,0.6,0.7,1.3,0.7"/>
		</g>
		<g>
			<path class="st9" d="M5.9,32.3c0.6,0,0.6,0.7,1.3,0.7c0.6,0,0.6-0.7,1.3-0.7C9,32.3,9,33,9.6,33c0.6,0,0.6-0.7,1.3-0.7
				c0.6,0,0.6,0.7,1.3,0.7"/>
		</g>
	</g>
</g>
</svg>
