<?xml version="1.0" encoding="utf-8"?>
<!-- Generator: Adobe Illustrator 24.1.1, SVG Export Plug-In . SVG Version: 6.00 Build 0)  -->
<svg version="1.1" id="Layer_1" xmlns="http://www.w3.org/2000/svg" xmlns:xlink="http://www.w3.org/1999/xlink" x="0px" y="0px"
	 viewBox="0 0 40 40" style="enable-background:new 0 0 40 40;" xml:space="preserve">
<style type="text/css">
	.st0{fill:#FFFFFF;stroke:#41424C;stroke-width:1.4976;stroke-linecap:round;stroke-linejoin:round;stroke-miterlimit:10;}
	.st1{fill:#D1D1D1;stroke:#41424C;stroke-width:1.4976;stroke-linecap:round;stroke-linejoin:round;stroke-miterlimit:10;}
	.st2{fill:#767C7A;stroke:#41424C;stroke-width:1.4976;stroke-linecap:round;stroke-linejoin:round;stroke-miterlimit:10;}
	.st3{fill:#B1E1F8;stroke:#41424C;stroke-width:1.4976;stroke-miterlimit:10;}
	.st4{fill:#FFFFFF;}
	.st5{fill:#D1D1D1;}
	.st6{fill:none;stroke:#41424C;stroke-width:1.4976;stroke-linejoin:round;stroke-miterlimit:10;}
</style>
<g>
	<g>
		<rect x="12.1" y="10.7" class="st0" width="16.8" height="23.6"/>
		<rect x="15.3" y="1.8" class="st0" width="16.8" height="3.5"/>
		<rect x="28.8" y="10.7" class="st1" width="6.3" height="23.6"/>
		<polygon class="st0" points="31.9,5.7 15.1,5.7 12.1,10.7 29,10.7 		"/>
		<polygon class="st2" points="35.1,10.7 31.9,5.7 29,10.7 		"/>
	</g>
	<rect x="12.1" y="16.5" class="st3" width="9.9" height="10.8"/>
	<polygon class="st4" points="17.2,21.5 5.3,21.5 4.9,21.5 6.7,38.3 15.8,38.3 17.7,21.5 	"/>
	<polygon class="st5" points="5.5,27.7 17,27.7 17.7,21.5 4.9,21.5 	"/>
	<polygon class="st6" points="17.2,21.5 5.3,21.5 4.9,21.5 6.7,38.3 15.8,38.3 17.7,21.5 	"/>
</g>
</svg>
