<?xml version="1.0" encoding="utf-8"?>
<!-- Generator: Adobe Illustrator 24.1.1, SVG Export Plug-In . SVG Version: 6.00 Build 0)  -->
<svg version="1.1" id="Layer_1" xmlns="http://www.w3.org/2000/svg" xmlns:xlink="http://www.w3.org/1999/xlink" x="0px" y="0px"
	 viewBox="0 0 40 40" style="enable-background:new 0 0 40 40;" xml:space="preserve">
<style type="text/css">
	.st0{fill:#FDCB7A;stroke:#41424C;stroke-width:1.5152;stroke-linecap:round;stroke-linejoin:round;stroke-miterlimit:10;}
</style>
<g>
	<g>
		<path class="st0" d="M31.3,32.9l2-1.7c1.3-1.1,2.1-2.8,2.1-4.5v-3.6l-4.1,3.4V32.9z"/>
		<path class="st0" d="M31.3,32.9l-2-1.7c-1.3-1.1-2.1-2.8-2.1-4.5v-3.6l4.1,3.4V32.9z"/>
		<polygon class="st0" points="31.3,26.6 35.4,23.2 35.4,16.9 31.3,20.3 		"/>
		<polygon class="st0" points="31.3,26.6 27.2,23.2 27.2,16.9 31.3,20.3 		"/>
		<polygon class="st0" points="31.3,20.3 35.4,16.9 35.4,10.6 31.3,14 		"/>
		<polygon class="st0" points="31.3,20.3 27.2,16.9 27.2,10.6 31.3,14 		"/>
		<line class="st0" x1="35.4" y1="10.6" x2="35.4" y2="6.9"/>
		<line class="st0" x1="31.3" y1="14" x2="31.3" y2="6.9"/>
		<line class="st0" x1="27.2" y1="10.6" x2="27.2" y2="6.9"/>
		<line class="st0" x1="31.3" y1="32.9" x2="31.3" y2="38.6"/>
	</g>
	<g>
		<path class="st0" d="M20,27.4l2-1.7c1.3-1.1,2.1-2.8,2.1-4.5v-3.6L20,21.1V27.4z"/>
		<path class="st0" d="M20,27.4l-2-1.7c-1.3-1.1-2.1-2.8-2.1-4.5v-3.6l4.1,3.4V27.4z"/>
		<polygon class="st0" points="20,21.1 24.1,17.7 24.1,11.4 20,14.8 		"/>
		<polygon class="st0" points="20,21.1 15.9,17.7 15.9,11.4 20,14.8 		"/>
		<polygon class="st0" points="20,14.8 24.1,11.4 24.1,5.1 20,8.5 		"/>
		<polygon class="st0" points="20,14.8 15.9,11.4 15.9,5.1 20,8.5 		"/>
		<line class="st0" x1="24.1" y1="5.1" x2="24.1" y2="1.4"/>
		<line class="st0" x1="20" y1="8.5" x2="20" y2="1.4"/>
		<line class="st0" x1="15.9" y1="5.1" x2="15.9" y2="1.4"/>
		<line class="st0" x1="20" y1="27.4" x2="20" y2="38.6"/>
	</g>
	<g>
		<path class="st0" d="M8.7,32.9l2-1.7c1.3-1.1,2.1-2.8,2.1-4.5v-3.6l-4.1,3.4V32.9z"/>
		<path class="st0" d="M8.7,32.9l-2-1.7c-1.3-1.1-2.1-2.8-2.1-4.5v-3.6l4.1,3.4V32.9z"/>
		<polygon class="st0" points="8.7,26.6 12.8,23.2 12.8,16.9 8.7,20.3 		"/>
		<polygon class="st0" points="8.7,26.6 4.6,23.2 4.6,16.9 8.7,20.3 		"/>
		<polygon class="st0" points="8.7,20.3 12.8,16.9 12.8,10.6 8.7,14 		"/>
		<polygon class="st0" points="8.7,20.3 4.6,16.9 4.6,10.6 8.7,14 		"/>
		<line class="st0" x1="12.8" y1="10.6" x2="12.8" y2="6.9"/>
		<line class="st0" x1="8.7" y1="14" x2="8.7" y2="6.9"/>
		<line class="st0" x1="4.6" y1="10.6" x2="4.6" y2="6.9"/>
		<line class="st0" x1="8.7" y1="32.9" x2="8.7" y2="38.6"/>
	</g>
</g>
</svg>
