<?xml version="1.0" encoding="utf-8"?>
<!-- Generator: Adobe Illustrator 24.1.1, SVG Export Plug-In . SVG Version: 6.00 Build 0)  -->
<svg version="1.1" id="Layer_1" xmlns="http://www.w3.org/2000/svg" xmlns:xlink="http://www.w3.org/1999/xlink" x="0px" y="0px"
	 viewBox="0 0 40 40" style="enable-background:new 0 0 40 40;" xml:space="preserve">
<style type="text/css">
	.st0{fill:#C3E0FC;stroke:#41424C;stroke-width:1.6228;stroke-linecap:round;stroke-linejoin:round;stroke-miterlimit:10;}
	.st1{fill:#FFEEA4;stroke:#41424C;stroke-width:1.6228;stroke-linecap:round;stroke-linejoin:round;stroke-miterlimit:10;}
	.st2{fill:#FFFFFF;stroke:#41424C;stroke-width:1.6228;stroke-linecap:round;stroke-linejoin:round;stroke-miterlimit:10;}
</style>
<g>
	<line class="st0" x1="25" y1="1.8" x2="25" y2="20.2"/>
	<line class="st0" x1="21" y1="20.2" x2="21" y2="1.8"/>
	<g>
		<ellipse class="st1" cx="20" cy="22.1" rx="12.6" ry="9.5"/>
		<path class="st1" d="M20,28.1c-4.4,0-8-2.7-8-6s3.6-6,8-6s8,2.7,8,6S24.4,28.1,20,28.1z"/>
		<path class="st1" d="M20,24.6c-1.8,0-3.3-1.1-3.3-2.5c0-1.4,1.5-2.5,3.3-2.5s3.3,1.1,3.3,2.5C23.3,23.4,21.8,24.6,20,24.6z"/>
	</g>
	<path class="st2" d="M20,36.1c9.1,0,16.5-7.6,16.5-16.9h-33C3.5,28.5,10.9,36.1,20,36.1z"/>
	<rect x="12.3" y="34.5" class="st2" width="15.4" height="3.8"/>
</g>
</svg>
