<?xml version="1.0" encoding="utf-8"?>
<!-- Generator: Adobe Illustrator 24.1.1, SVG Export Plug-In . SVG Version: 6.00 Build 0)  -->
<svg version="1.1" id="Layer_1" xmlns="http://www.w3.org/2000/svg" xmlns:xlink="http://www.w3.org/1999/xlink" x="0px" y="0px"
	 viewBox="0 0 40 40" style="enable-background:new 0 0 40 40;" xml:space="preserve">
<style type="text/css">
	.st0{fill:#809EAA;stroke:#41424C;stroke-width:1.4715;stroke-miterlimit:10;}
	.st1{fill:#B1E1F8;stroke:#41424C;stroke-width:1.4715;stroke-miterlimit:10;}
	.st2{fill:#809EAA;stroke:#41424C;stroke-width:1.4715;stroke-linejoin:round;stroke-miterlimit:10;}
	.st3{fill:#434B56;}
	.st4{fill:none;stroke:#41424C;stroke-width:1.4715;stroke-miterlimit:10;}
</style>
<g>
	<path class="st0" d="M11.5,12.7c0,0,3.2-3.8,9.7-3.8c2.3,0,1.5,4.3,1.5,4.3"/>
	<path class="st0" d="M11.5,27.3c0,0,3.2,3.8,9.7,3.8c2.3,0,1.5-4.3,1.5-4.3"/>
	<path class="st1" d="M16.4,12C10.4,12,5,15.2,1.9,20c3.1,4.8,8.4,8,14.5,8c6.1,0,11.4-3.2,14.5-8C27.9,15.2,22.5,12,16.4,12z"/>
	<path class="st2" d="M38.2,26.4c-3-1.4-5.5-3.6-7.3-6.4c1.8-2.8,4.3-5,7.3-6.4C38.2,13.6,34.9,20.3,38.2,26.4z"/>
	<path class="st3" d="M7.2,19.4c0-0.5,0.4-0.9,0.9-0.9l0,0c0.5,0,0.9,0.4,0.9,0.9l0,0c0,0.5-0.4,0.9-0.9,0.9l0,0
		C7.7,20.3,7.2,19.9,7.2,19.4z"/>
	<path class="st4" d="M10.7,13c0,0,4.4,6.5,0,14.1"/>
</g>
</svg>
