<?xml version="1.0" encoding="utf-8"?>
<!-- Generator: Adobe Illustrator 24.1.1, SVG Export Plug-In . SVG Version: 6.00 Build 0)  -->
<svg version="1.1" id="Layer_1" xmlns="http://www.w3.org/2000/svg" xmlns:xlink="http://www.w3.org/1999/xlink" x="0px" y="0px"
	 viewBox="0 0 40 40" style="enable-background:new 0 0 40 40;" xml:space="preserve">
<style type="text/css">
	.st0{fill:#FFFFFF;stroke:#41424C;stroke-width:1.6956;stroke-linecap:round;stroke-linejoin:round;stroke-miterlimit:10;}
</style>
<g>
	<path class="st0" d="M38.3,24.4c0-8.3-8-14.8-18.2-14.8C9.8,9.6,1.8,16.1,1.8,24.4c0,2.4,0.7,4.4,2,6L7.8,28
		c2.4,1.4,6.9,0.8,12.2,0.8c5.2,0,9.8,0.6,12.2-0.8l4.1,2.5C37.5,29.1,38.3,27.2,38.3,24.4z"/>
	<line class="st0" x1="7" y1="23.4" x2="5.7" y2="23.4"/>
	<line class="st0" x1="20" y1="14.7" x2="20" y2="13.2"/>
	<line class="st0" x1="8.7" y1="19.5" x2="7.5" y2="18.9"/>
	<line class="st0" x1="11.7" y1="16.7" x2="10.9" y2="15.6"/>
	<line class="st0" x1="15.9" y1="15.2" x2="15.5" y2="13.8"/>
	<line class="st0" x1="33" y1="23.4" x2="34.3" y2="23.4"/>
	<line class="st0" x1="31.3" y1="19.5" x2="32.5" y2="18.9"/>
	<line class="st0" x1="28.3" y1="16.7" x2="29.1" y2="15.6"/>
	<line class="st0" x1="24.1" y1="15.2" x2="24.5" y2="13.8"/>
</g>
</svg>
