<?xml version="1.0" encoding="utf-8"?>
<!-- Generator: Adobe Illustrator 24.1.1, SVG Export Plug-In . SVG Version: 6.00 Build 0)  -->
<svg version="1.1" id="Layer_1" xmlns="http://www.w3.org/2000/svg" xmlns:xlink="http://www.w3.org/1999/xlink" x="0px" y="0px"
	 viewBox="0 0 40 40" style="enable-background:new 0 0 40 40;" xml:space="preserve">
<style type="text/css">
	.st0{fill:#B0906E;stroke:#41424C;stroke-width:1.5129;stroke-linejoin:round;stroke-miterlimit:10;}
	.st1{fill:#896A4E;stroke:#41424C;stroke-width:1.5129;stroke-linejoin:round;stroke-miterlimit:10;}
</style>
<g>
	<g>
		<path class="st0" d="M28.6,27.7c-5.4-0.1-8.3,2.9-9.8,5.5c2.7,2.7,8.4,2.6,13.2-0.5c4.7-3,7.1-7.7,5.9-11.2
			C36.4,24.6,33.5,27.8,28.6,27.7z"/>
		<path class="st0" d="M23.9,20.6c-5.2,3.3-7.6,8.9-5.2,12.4c0.1,0.1,0.1,0.2,0.2,0.3c1.1-3.1,3.7-6.8,9.1-6.6
			c5,0.1,8.1-2.7,9.9-5.4c-0.1-0.1-0.1-0.2-0.2-0.3C35.3,17.5,29.1,17.3,23.9,20.6z"/>
	</g>
	<g>
		<path class="st1" d="M13.1,13.2c-4.5-3-8.6-2-11.4-0.6c0.7,3.7,5.5,6.6,11.3,6.6c5.6,0,10.3-2.7,11.3-6.2
			C21.3,14.8,17.1,15.9,13.1,13.2z"/>
		<path class="st1" d="M13.1,4.8c-6.3,0-11.3,3.4-11.3,7.6c0,0.1,0,0.2,0,0.3c2.7-2,6.9-3.7,11.3-0.7c4.1,2.7,8.3,2,11.3,0.8
			c0-0.1,0-0.3,0-0.4C24.4,8.3,19.4,4.8,13.1,4.8z"/>
	</g>
</g>
</svg>
