<?xml version="1.0" encoding="utf-8"?>
<!-- Generator: Adobe Illustrator 24.1.1, SVG Export Plug-In . SVG Version: 6.00 Build 0)  -->
<svg version="1.1" id="Layer_1" xmlns="http://www.w3.org/2000/svg" xmlns:xlink="http://www.w3.org/1999/xlink" x="0px" y="0px"
	 viewBox="0 0 40 40" style="enable-background:new 0 0 40 40;" xml:space="preserve">
<style type="text/css">
	.st0{fill:#FCE67C;}
	.st1{fill:none;stroke:#41424C;stroke-width:1.6675;stroke-linecap:round;stroke-linejoin:round;stroke-miterlimit:10;}
</style>
<g>
	<path class="st0" d="M32.7,3.5c0,0,0-2.8-2.9-2.2c-2.9,0.5-2.9,2-2.9,2l3,4.9c-5.8,18.2-21.3,12.9-23.1,12c-0.8-0.4-4.1-3-5.4,0.3
		c-1.3,3.3,6.7,8.3,6.7,8.3s6,2.3,11.2,1c11.5-3,12.7-16,12.7-16s-1.2,13-12.7,16c-5.1,1.4-11.2-1-11.2-1s-1.3-0.1-2.7,1.7
		c-1.3,1.8,1,3.9,1,3.9c15.8,10.5,26.9,0.3,30.9-7.6c4.1-7.9-3.6-19.2-3.6-19.2L32.7,3.5z"/>
	<g>
		<path class="st1" d="M30,8.2l-3-4.9c0,0-0.1-1.5,2.9-2c2.9-0.5,2.9,2.2,2.9,2.2l1.1,4.1c0,0,7.6,11.3,3.6,19.2
			c-4.1,7.9-15.1,18.1-30.9,7.6c0,0-2.3-2.1-1-3.9c1.3-1.8,2.7-1.7,2.7-1.7s-8-5-6.7-8.3c1.3-3.3,4.6-0.8,5.4-0.3
			C8.6,21.1,24.2,26.4,30,8.2z"/>
		<path class="st1" d="M32.1,13.8c0,0-1.2,13-12.7,16c-5.1,1.4-11.2-1-11.2-1"/>
	</g>
</g>
</svg>
