<?xml version="1.0" encoding="utf-8"?>
<!-- Generator: Adobe Illustrator 24.1.1, SVG Export Plug-In . SVG Version: 6.00 Build 0)  -->
<svg version="1.1" id="Layer_1" xmlns="http://www.w3.org/2000/svg" xmlns:xlink="http://www.w3.org/1999/xlink" x="0px" y="0px"
	 viewBox="0 0 40 40" style="enable-background:new 0 0 40 40;" xml:space="preserve">
<style type="text/css">
	.st0{fill:#E5E3E1;stroke:#41424C;stroke-width:1.58;stroke-miterlimit:10;}
	.st1{fill:#C2B59B;}
	.st2{fill:#41424C;}
	.st3{fill:#E5E3E1;stroke:#41424C;stroke-width:1.58;stroke-linejoin:round;stroke-miterlimit:10;}
	.st4{fill:#7D9950;}
	.st5{fill:none;stroke:#41424C;stroke-width:1.58;stroke-linecap:round;stroke-linejoin:round;stroke-miterlimit:10;}
</style>
<g>
	<path class="st0" d="M8.9,7.7c0,0,0.3-5.1,12.3-5.1s13,5.1,13,5.1l-2.9,2l-7.9,1.6l-8.8-0.1L9.2,9.7L8.9,7.7z"/>
	<path class="st1" d="M21.4,13c9,0,11.5-1.6,12.3-2.6c0.6-0.8,0.6-1.6,0.4-2.1C32,10,26.5,11,21.4,11c-5.2,0-10.7-1-12.7-2.7
		c-0.2,0.6-0.2,1.3,0.4,2.1C9.8,11.4,12.4,13,21.4,13z"/>
	<path class="st1" d="M36,21.3c-0.4-4-1.4-7.4-2-9c-2.2,1.6-6.3,2.3-12.6,2.3c-6.3,0-10.5-0.8-12.6-2.3c-0.6,1.6-1.7,5-2,9
		c-0.2,1.8-0.2,3.3-0.2,4.8c0,2.5,0,4.7-0.8,7.3c1.1,0.1,2.1,0.2,3.1,0.3c3,0.3,6.5,0.7,12.5,0.7c6,0,9.5-0.4,12.5-0.7
		c1.1-0.1,2.1-0.2,3.1-0.3c-0.7-2.6-0.8-4.8-0.8-7.3C36.2,24.7,36.2,23.1,36,21.3z"/>
	<path class="st2" d="M37.9,26.2c0-1.5,0-3.1-0.2-5c-0.5-5-1.9-8.9-2.4-10.2c1.3-2.1,0.3-4-0.5-4.8l-1.4-1.4v2
		c-0.2,0.8-4.6,2.6-11.9,2.6S9.6,7.5,9.4,6.8v-2L8,6.2C7.2,7,6.2,8.9,7.5,11C7,12.2,5.5,16.1,5,21.2c-0.2,1.9-0.2,3.4-0.2,5
		c0,2.7-0.1,5-1,7.8l-0.3,1L4.5,35c1.4,0.1,2.7,0.2,4.1,0.4c3.1,0.3,6.6,0.7,12.7,0.7s9.6-0.4,12.7-0.7c1.4-0.1,2.7-0.3,4.1-0.4
		l1.1-0.1l-0.3-1C38,31.2,37.9,28.8,37.9,26.2z M8.6,8.3C10.7,10,16.2,11,21.4,11c5.2,0,10.7-1,12.7-2.7c0.2,0.5,0.2,1.3-0.4,2.1
		c-0.8,1-3.3,2.6-12.3,2.6c-8.9,0-11.5-1.6-12.3-2.6C8.4,9.6,8.4,8.9,8.6,8.3z M33.9,33.8c-3,0.3-6.5,0.7-12.5,0.7
		c-6,0-9.5-0.4-12.5-0.7c-1.1-0.1-2.1-0.2-3.1-0.3c0.7-2.6,0.8-4.8,0.8-7.3c0-1.5,0-3,0.2-4.8c0.4-4,1.4-7.4,2-9
		c2.2,1.6,6.3,2.3,12.6,2.3c6.3,0,10.5-0.8,12.6-2.3c0.6,1.6,1.7,5,2,9c0.2,1.8,0.2,3.3,0.2,4.8c0,2.5,0,4.7,0.8,7.3
		C36,33.6,34.9,33.7,33.9,33.8z"/>
	<ellipse class="st0" cx="17.3" cy="7.5" rx="0.3" ry="0.3"/>
	<ellipse class="st0" cx="14.2" cy="6.7" rx="0.3" ry="0.3"/>
	<ellipse class="st0" cx="20.8" cy="5.5" rx="0.3" ry="0.3"/>
	<ellipse class="st0" cx="23.4" cy="7.8" rx="0.3" ry="0.3"/>
	<ellipse class="st0" cx="28.2" cy="6.5" rx="0.3" ry="0.3"/>
	<g>
		<path class="st3" d="M2.6,15.7l0.5,0.7l0.6,1l0.7,1.8l-0.1,2.3v1.6c0,0,2.4,0.7,3.3,0.7s6.2,0,6.2,0s0-1.5-0.1-1.7
			c0-0.2,0-2.8,0-2.9s0.1-1.6,0.1-1.6s-5.5-1.1-5.6-1.1c0,0-5.4-0.7-5.4-0.7H2.6z"/>
		<polygon class="st4" points="3.6,37.4 2.2,34.2 1.5,30.6 2.6,25.9 3.8,23.2 3.8,22.8 4.6,22.1 7.5,22.1 11.8,22.1 12.7,22.1 
			13.8,22.9 14.5,25.9 15.5,29.1 15.9,32 14.6,35.3 12.6,37.4 		"/>
		<path class="st5" d="M2.6,15.7c0,0,2.7,3.1,1.7,6.3c-1,3.2-5.2,7.4-0.7,15.4h9c0,0,3.8-3,3.3-6.6c-0.6-3.7-3.3-8.1-1.9-13.2
			L2.6,15.7z"/>
		<path class="st5" d="M14,20.7c0,0,3.3-1.5,4.4,2.5c1.1,4,0.3,7.9-1.9,8.1"/>
		<line class="st5" x1="13.4" y1="22.1" x2="4.3" y2="22.1"/>
	</g>
</g>
</svg>
