<?xml version="1.0" encoding="utf-8"?>
<!-- Generator: Adobe Illustrator 24.1.1, SVG Export Plug-In . SVG Version: 6.00 Build 0)  -->
<svg version="1.1" id="Layer_1" xmlns="http://www.w3.org/2000/svg" xmlns:xlink="http://www.w3.org/1999/xlink" x="0px" y="0px"
	 viewBox="0 0 40 40" style="enable-background:new 0 0 40 40;" xml:space="preserve">
<style type="text/css">
	.st0{fill:#D1D1D1;stroke:#41424C;stroke-width:1.7096;stroke-linecap:round;stroke-linejoin:round;stroke-miterlimit:10;}
	.st1{fill:#FFFFFF;stroke:#41424C;stroke-width:1.7096;stroke-linecap:round;stroke-linejoin:round;stroke-miterlimit:10;}
	.st2{fill:#F24E4E;stroke:#41424C;stroke-width:1.7096;}
</style>
<g>
	<path class="st0" d="M34.1,12.7H5.9v22.2c0,1.9,1.5,3.4,3.4,3.4h21.3c1.9,0,3.4-1.5,3.4-3.4V12.7z"/>
	<path class="st1" d="M34.7,8.6H5.3C4.6,8.6,4,9.1,4,9.8v5.9C4,16.5,4.6,17,5.3,17h29.5c0.7,0,1.3-0.6,1.3-1.3V9.8
		C36,9.1,35.4,8.6,34.7,8.6z"/>
	<rect x="16.6" y="8.6" class="st2" width="6.9" height="29.7"/>
	<path class="st2" d="M20,8.6l-3.6-5.1C14,0.1,8.8,2,9.1,6.2c0,0.7,0.2,1.5,0.4,2.4H20z"/>
	<path class="st2" d="M20,8.6l3.6-5.1C26,0.1,31.2,2,30.9,6.2c0,0.7-0.2,1.5-0.4,2.4H20z"/>
</g>
</svg>
