<?xml version="1.0" encoding="utf-8"?>
<!-- Generator: Adobe Illustrator 24.1.1, SVG Export Plug-In . SVG Version: 6.00 Build 0)  -->
<svg version="1.1" id="Layer_1" xmlns="http://www.w3.org/2000/svg" xmlns:xlink="http://www.w3.org/1999/xlink" x="0px" y="0px"
	 viewBox="0 0 20 20" style="enable-background:new 0 0 20 20;" xml:space="preserve">
<style type="text/css">
	.st0{fill:#FFFFFF;}
</style>
<g>
	<circle class="st0" cx="10" cy="10" r="8.8"/>
	<path d="M10,2c4.4,0,8,3.6,8,8s-3.6,8-8,8s-8-3.6-8-8S5.6,2,10,2 M10,0.5c-5.2,0-9.5,4.3-9.5,9.5s4.3,9.5,9.5,9.5s9.5-4.3,9.5-9.5
		S15.2,0.5,10,0.5L10,0.5z"/>
</g>
<path d="M12.8,10.6c-0.2-0.2-0.3-0.4-0.6-0.6h-1.1c-0.1,0-0.1,0-0.1-0.1c0-0.1,0-0.1,0.1-0.1h1.1c0.2-0.1,0.3-0.3,0.4-0.5
	c0.1-0.3,0.2-0.6,0.2-1c0-0.4-0.1-0.7-0.2-1c-0.1-0.3-0.3-0.5-0.5-0.6c-0.2-0.2-0.5-0.3-0.8-0.3c-0.3-0.1-0.6-0.1-0.9-0.1H8.2H7.5H7
	c0,0-0.1,0-0.1,0.1c0,0,0,0.1,0.1,0.1l0,0c0,0,0.6,0.2,0.6,0.7v5.7c0,0.5-0.6,0.7-0.6,0.7l0,0c0,0-0.1,0-0.1,0.1c0,0,0,0.1,0.1,0.1
	h0.5h0.7h2.5c0.3,0,0.6,0,0.9-0.1c0.3-0.1,0.5-0.2,0.8-0.3c0.2-0.2,0.4-0.4,0.5-0.6c0.1-0.3,0.2-0.6,0.2-1
	C13.1,11.2,13,10.9,12.8,10.6z M9.6,7.1c0.3,1.1,1.7,1.4,1.2,2.7c-0.3-0.3-1.1-1-1.2-2.1c0.1,1.6,1,2.2,1,2.2S8.8,9.8,9.6,7.1z
	 M9.6,12.8c-0.8-2.8,1.1-2.9,1.1-2.9s-0.9,0.6-1,2.2c0.1-1,0.9-1.8,1.2-2.1C11.3,11.5,9.9,11.8,9.6,12.8z"/>
</svg>
