<?xml version="1.0" encoding="utf-8"?>
<!-- Generator: Adobe Illustrator 24.1.1, SVG Export Plug-In . SVG Version: 6.00 Build 0)  -->
<svg version="1.1" id="Layer_1" xmlns="http://www.w3.org/2000/svg" xmlns:xlink="http://www.w3.org/1999/xlink" x="0px" y="0px"
	 viewBox="0 0 20 20" style="enable-background:new 0 0 20 20;" xml:space="preserve">
<style type="text/css">
	.st0{fill:#FFFFFF;}
	.st1{enable-background:new    ;}
</style>
<g>
	<circle class="st0" cx="10" cy="10" r="9"/>
	<path d="M10,1.5c4.7,0,8.5,3.8,8.5,8.5s-3.8,8.5-8.5,8.5S1.5,14.7,1.5,10S5.3,1.5,10,1.5 M10,0.5c-5.2,0-9.5,4.3-9.5,9.5
		s4.3,9.5,9.5,9.5s9.5-4.3,9.5-9.5S15.2,0.5,10,0.5L10,0.5z"/>
</g>
<g class="st1">
	<path d="M7,14.6V6.2h4c0.5,0,0.9,0.1,1.2,0.2c0.3,0.1,0.6,0.3,0.9,0.6c0.2,0.3,0.4,0.5,0.5,0.9c0.1,0.3,0.2,0.7,0.2,1.1
		s-0.1,0.7-0.2,1.1c-0.1,0.3-0.3,0.6-0.5,0.9c-0.2,0.3-0.5,0.5-0.8,0.6s-0.7,0.3-1.2,0.3l-2,0.2v2.1L7,14.6z M10.7,10.1
		c0.3,0,0.6-0.1,0.8-0.3c0.2-0.2,0.3-0.4,0.3-0.7c0-0.3-0.1-0.6-0.3-0.7C11.2,8.1,11,8,10.7,8H9.1v2.2L10.7,10.1z"/>
</g>
</svg>
