<?xml version="1.0" encoding="utf-8"?>
<!-- Generator: Adobe Illustrator 26.1.0, SVG Export Plug-In . SVG Version: 6.00 Build 0)  -->
<svg version="1.1" id="레이어_1" xmlns="http://www.w3.org/2000/svg" xmlns:xlink="http://www.w3.org/1999/xlink" x="0px"
	 y="0px" viewBox="0 0 95 22.05" style="enable-background:new 0 0 95 22.05;" xml:space="preserve">
<g>
	<path d="M1.98,17.02H0V0.43L1.98,0V17.02z M7.26,4.98L8.8,6.1L5,10.86l4.4,5.28l-1.52,1.18l-5.2-6.35L7.26,4.98z"/>
	<path d="M10.88,13.87c0-1.19,0.4-2.09,1.19-2.72c0.79-0.62,1.95-0.93,3.47-0.93h2.28V9.47c0-1.82-0.8-2.73-2.4-2.73
		c-0.52,0-1.06,0.07-1.62,0.21c-0.57,0.14-1.08,0.32-1.56,0.54l-0.58-1.4c0.59-0.33,1.22-0.58,1.9-0.76
		c0.68-0.18,1.34-0.27,1.99-0.27c2.78,0,4.17,1.48,4.17,4.44v7.51h-1.46l-0.24-1.29c-0.59,0.47-1.21,0.84-1.88,1.09
		c-0.67,0.26-1.3,0.39-1.9,0.39c-1.04,0-1.86-0.3-2.46-0.89C11.18,15.73,10.88,14.91,10.88,13.87z M14.58,15.63
		c0.27,0,0.55-0.04,0.85-0.11c0.29-0.07,0.59-0.16,0.88-0.28c0.29-0.11,0.57-0.25,0.83-0.42c0.26-0.16,0.49-0.34,0.69-0.53v-2.75
		h-2.06c-1.04,0-1.81,0.18-2.29,0.54c-0.48,0.36-0.72,0.92-0.72,1.7C12.75,15.01,13.36,15.63,14.58,15.63z"/>
	<path d="M25.57,17.02h-1.98V0.43L25.57,0V17.02z M30.85,4.98L32.4,6.1l-3.8,4.77l4.4,5.28l-1.52,1.18l-5.2-6.35L30.85,4.98z"/>
	<path d="M34.48,13.87c0-1.19,0.4-2.09,1.19-2.72c0.79-0.62,1.95-0.93,3.47-0.93h2.28V9.47c0-1.82-0.8-2.73-2.4-2.73
		c-0.52,0-1.06,0.07-1.62,0.21c-0.57,0.14-1.08,0.32-1.56,0.54l-0.58-1.4c0.59-0.33,1.22-0.58,1.9-0.76
		c0.68-0.18,1.34-0.27,1.99-0.27c2.78,0,4.17,1.48,4.17,4.44v7.51h-1.46l-0.24-1.29c-0.59,0.47-1.21,0.84-1.88,1.09
		c-0.67,0.26-1.3,0.39-1.9,0.39c-1.04,0-1.86-0.3-2.46-0.89C34.78,15.73,34.48,14.91,34.48,13.87z M38.17,15.63
		c0.27,0,0.55-0.04,0.85-0.11c0.29-0.07,0.59-0.16,0.88-0.28c0.29-0.11,0.57-0.25,0.83-0.42c0.26-0.16,0.49-0.34,0.69-0.53v-2.75
		h-2.06c-1.04,0-1.81,0.18-2.29,0.54c-0.48,0.36-0.72,0.92-0.72,1.7C36.35,15.01,36.95,15.63,38.17,15.63z"/>
	<path d="M51.74,5.09c1.63,0,2.91,0.53,3.84,1.59c0.93,1.06,1.4,2.58,1.4,4.55c0,1.95-0.46,3.44-1.38,4.49
		c-0.92,1.04-2.21,1.57-3.85,1.57c-1.63,0-2.91-0.52-3.84-1.57c-0.93-1.04-1.4-2.54-1.4-4.49c0-1.98,0.47-3.49,1.41-4.55
		C48.84,5.62,50.12,5.09,51.74,5.09z M51.74,6.68c-1.03,0-1.82,0.39-2.37,1.16c-0.55,0.77-0.83,1.9-0.83,3.39
		c0,1.47,0.28,2.59,0.83,3.34c0.55,0.75,1.34,1.13,2.37,1.13c1.04,0,1.84-0.38,2.39-1.13c0.55-0.75,0.83-1.86,0.83-3.34
		c0-1.49-0.28-2.62-0.83-3.39C53.58,7.06,52.78,6.68,51.74,6.68z"/>
	<path d="M63.03,17.13v4.4H59.9V5.3h2.21l0.39,1.03c0.67-0.67,1.67-1.37,3.31-1.37c3.07,0,4.53,2.3,4.51,6.01
		c0,3.89-2.25,6.38-5.48,6.38C64.21,17.35,63.74,17.3,63.03,17.13z M63.03,7.92v7.02c0.17,0.02,0.6,0.06,1.01,0.06
		c2.23,0,3.09-1.57,3.09-4.04c0-2.17-0.58-3.48-2.36-3.48C64.19,7.49,63.55,7.66,63.03,7.92z"/>
	<path d="M77.14,9.88h1.78V9.49c0-1.29-0.73-1.89-2-1.89c-0.97,0-2.21,0.28-3.22,0.77l-0.86-2.1c1.12-0.77,2.83-1.31,4.36-1.31
		c3.01,0,4.64,1.59,4.64,4.62v7.45h-2.21l-0.32-0.99c-1.27,0.92-2.43,1.31-3.48,1.31c-2.3,0-3.59-1.37-3.59-3.69
		C72.24,11.18,73.96,9.88,77.14,9.88z M78.92,14.02v-2.15h-1.44c-1.61,0-2.43,0.58-2.43,1.74c0,0.88,0.45,1.31,1.37,1.31
		C77.29,14.92,78.38,14.49,78.92,14.02z"/>
	<path d="M91.33,15.82c-1.1,2.92-2.4,5.05-4.32,6.23l-1.93-1.78c1.12-0.97,1.91-1.91,2.6-3.18L83.51,5.73l3.11-0.84l2.66,9.21
		l2.64-9.25L95,5.71L91.33,15.82z"/>
</g>
</svg>
