<?xml version="1.0" encoding="utf-8"?>
<!-- Generator: Adobe Illustrator 26.1.0, SVG Export Plug-In . SVG Version: 6.00 Build 0)  -->
<svg version="1.1" id="레이어_1" xmlns="http://www.w3.org/2000/svg" xmlns:xlink="http://www.w3.org/1999/xlink" x="0px"
	 y="0px" viewBox="0 0 63 24.76" style="enable-background:new 0 0 63 24.76;" xml:space="preserve">
<style type="text/css">
	.st0{fill:#333333;}
	.st1{fill:#00C73C;}
</style>
<g>
	<g>
		<path class="st0" d="M31.84,5.31h5.05c0.8,0,1.49,0.1,2.08,0.3c0.59,0.2,1.07,0.48,1.46,0.84c0.38,0.36,0.67,0.79,0.86,1.29
			c0.19,0.5,0.28,1.03,0.28,1.61v0.41c0,0.58-0.1,1.12-0.3,1.62c-0.2,0.5-0.5,0.95-0.89,1.32c-0.39,0.38-0.88,0.68-1.46,0.9
			c-0.58,0.22-1.26,0.33-2.03,0.33h-3.11v5.51h-1.94V5.31z M33.78,6.99v5.26h2.79c2.04,0,3.06-0.84,3.06-2.53V9.37
			c0-0.81-0.25-1.41-0.74-1.8c-0.49-0.39-1.19-0.58-2.11-0.58H33.78z"/>
		<path class="st0" d="M46.55,19.61c-1.09,0-1.95-0.27-2.58-0.8c-0.63-0.54-0.95-1.28-0.95-2.22v-0.53c0-0.92,0.31-1.66,0.92-2.24
			c0.61-0.58,1.61-0.86,2.98-0.86h2.73v-0.63c0-0.72-0.17-1.25-0.52-1.6c-0.35-0.35-0.91-0.52-1.7-0.52c-0.63,0-1.17,0.1-1.64,0.29
			c-0.46,0.2-0.95,0.46-1.44,0.79l-0.94-1.41c0.52-0.37,1.11-0.68,1.77-0.95c0.65-0.27,1.41-0.4,2.28-0.4c0.6,0,1.15,0.08,1.65,0.23
			c0.5,0.15,0.93,0.37,1.29,0.67c0.36,0.29,0.64,0.65,0.84,1.08c0.2,0.43,0.3,0.91,0.3,1.44v7.52h-1.83v-1.3h-0.02
			c-0.1,0.2-0.25,0.38-0.42,0.54c-0.18,0.16-0.37,0.3-0.58,0.42c-0.29,0.16-0.6,0.28-0.93,0.36C47.43,19.57,47.03,19.61,46.55,19.61
			z M49.66,14.57h-2.69c-0.75,0-1.28,0.14-1.6,0.43c-0.32,0.29-0.48,0.69-0.48,1.2v0.27c0,0.52,0.18,0.9,0.55,1.14
			c0.37,0.24,0.8,0.35,1.31,0.35c0.47,0,0.88-0.06,1.23-0.17c0.35-0.11,0.66-0.28,0.95-0.5c0.26-0.2,0.45-0.42,0.56-0.68
			c0.11-0.26,0.17-0.59,0.17-0.99V14.57z"/>
		<path class="st0" d="M58.17,17.3L61,8.72h2l-5.57,15.17l-1.73-0.61l1.39-3.67L53.19,8.72h2.06l2.85,8.58H58.17z"/>
	</g>
	<path class="st1" d="M0,0v24.76h24.76V0H0z M18.57,18.05h-4.22l-3.99-5.87v5.87H6.19V6.71h4.22l3.99,5.87V6.71h4.16V18.05z"/>
</g>
</svg>
