<?xml version="1.0" encoding="utf-8"?>
<!-- Generator: Adobe Illustrator 26.5.0, SVG Export Plug-In . SVG Version: 6.00 Build 0)  -->
<svg version="1.1" id="레이어_1" xmlns="http://www.w3.org/2000/svg" xmlns:xlink="http://www.w3.org/1999/xlink" x="0px"
	 y="0px" viewBox="0 0 50 50" style="enable-background:new 0 0 50 50;" xml:space="preserve">
<style type="text/css">
	.st0{fill:#92DCB4;}
	.st1{fill:#00804E;}
</style>
<g>
	<circle class="st0" cx="25" cy="25" r="25"/>
	<path class="st1" d="M39,15.6c-0.3-0.3-0.7-0.5-1.1-0.4c-0.1,0-9.4,1.3-12.9,9.7c-3.5-8.4-12.8-9.7-12.9-9.7
		c-0.4-0.1-0.8,0.1-1.1,0.4c-0.3,0.3-0.4,0.7-0.4,1.2c1.3,14.3,9.9,16.3,13.1,16.6v4.2c0,0.8,0.6,1.5,1.3,1.5s1.3-0.7,1.3-1.5v-4.2
		C37.1,32.6,39,20.5,39.4,16.8C39.4,16.4,39.3,15.9,39,15.6z M36.5,18.5c-1.6,9.9-7.3,11.7-10.1,11.9C27.1,22.3,33.3,19.4,36.5,18.5
		z M23.6,30.4c-2.8-0.2-8.5-2-10.1-11.9C16.7,19.4,22.9,22.3,23.6,30.4z"/>
</g>
</svg>
