<?xml version="1.0" encoding="utf-8"?>
<!-- Generator: Adobe Illustrator 26.3.1, SVG Export Plug-In . SVG Version: 6.00 Build 0)  -->
<svg version="1.1" id="레이어_1" xmlns="http://www.w3.org/2000/svg" xmlns:xlink="http://www.w3.org/1999/xlink" x="0px"
	 y="0px" viewBox="0 0 72 23.1" style="enable-background:new 0 0 72 23.1;" xml:space="preserve">
<style type="text/css">
	.st0{fill:#239169;}
	.st1{fill:#FFFFFF;}
	.st2{enable-background:new    ;}
</style>
<g>
	<path class="st0" d="M69.4,2.7H18.9C16.9,1,14.4,0,11.5,0C5.2,0,0,5.2,0,11.5C0,17.9,5.1,23,11.4,23.1v0h58c1.4,0,2.6-1.2,2.6-2.6
		V5.3C72,3.9,70.8,2.7,69.4,2.7z"/>
</g>
<g>
	<path class="st1" d="M11.5,21.5L11.5,21.5c-5.5,0-9.9-4.4-9.9-9.9l0,0c0-5.5,4.4-9.9,9.9-9.9l0,0c5.5,0,9.9,4.4,9.9,9.9l0,0
		C21.5,17,17,21.5,11.5,21.5z"/>
</g>
<g>
	<path class="st0" d="M14.7,13.2c-0.1,0.4-0.2,0.6-0.4,0.7c-0.2,0.1-0.5,0.2-0.8,0.2H11l2-8.5h-2.5h-1H8.1l-0.5,2H9L6.8,17h7
		c0.5,0,0.9-0.1,1.3-0.2c0.3-0.2,0.6-0.4,0.8-0.6c0.2-0.2,0.4-0.5,0.5-0.8c0.1-0.3,0.2-0.6,0.3-0.9L14.7,13.2z"/>
</g>
<g class="st2">
	<path class="st1" d="M25.5,14.3v-3.7h5.7V9.3h-5.7V8h7.3v3.8H27V13h6.1v1.3h-3.2v1.6h4.5v1.3H23.9v-1.3h4.5v-1.6H25.5z"/>
	<path class="st1" d="M39.6,9c-0.8,0-1.7,0-2.5,0h-1.3V7.8h2c1.2,0,2.4,0,3.6,0c-0.2,2.7-2.3,4.9-5.5,5.8L35,12.6
		c1.4-0.4,2.5-0.9,3.3-1.6c-0.5,0-1,0-1.4,0h-1.2V9.8h1.5c0.8,0,1.4,0,2.2-0.1C39.4,9.5,39.5,9.3,39.6,9z M44.6,18.6h-7.5v-3.2h5.8
		v-0.6h-5.8v-1.3h7.3v3.1h-5.8v0.7h6V18.6z M41,11.3V10h1.8V7.3h1.5v5.8h-1.5v-1.7H41z"/>
	<path class="st1" d="M45.8,14.9v-1.3h10.6v1.3H52v3.8h-1.5v-3.8H45.8z M47,12.7v-1.3h1.5l-0.1-2.1H50l0.1,2.1h2.2l0.1-2.1h1.5
		l-0.1,2.1h1.5v1.3H47z M47.2,8.9V7.7h7.8v1.3H47.2z"/>
	<path class="st1" d="M67.4,15.8v1.3H56.8v-1.3H67.4z M58.5,13.9V8.2h7.2v1.3H60v3h5.8v1.3H58.5z"/>
</g>
</svg>
