<?xml version="1.0" encoding="utf-8"?>
<!-- Generator: Adobe Illustrator 26.3.1, SVG Export Plug-In . SVG Version: 6.00 Build 0)  -->
<svg version="1.1" id="레이어_1" xmlns="http://www.w3.org/2000/svg" xmlns:xlink="http://www.w3.org/1999/xlink" x="0px"
	 y="0px" viewBox="0 0 26.97 31.12" style="enable-background:new 0 0 26.97 31.12;" xml:space="preserve">
<style type="text/css">
	.st0{fill:#ECECEC;}
	.st1{fill:#008AFF;}
	.st2{fill:#FFFFFF;}
</style>
<g>
	<path class="st0" d="M20.88,22.96c2.8-2.2,4.6-5.6,4.6-9.4c0-6.6-5.4-12-12-12s-12,5.4-12,12c0,3.8,1.8,7.2,4.6,9.4l-1.5,1.3
		c-0.9,0.8-1.2,2.1-0.8,3.3c0.5,1.2,1.6,2,2.9,2h13.7c1.2,0,2.3-0.8,2.8-1.9c0.5-1.2,0.1-2.5-0.8-3.3L20.88,22.96z M13.48,19.56
		c-3.3,0-6-2.7-6-6s2.7-6,6-6s6,2.7,6,6S16.78,19.56,13.48,19.56z"/>
	<path d="M20.38,30.56H6.68c-1.69,0-3.15-1-3.82-2.62c-0.56-1.66-0.13-3.37,1.06-4.43l0.64-0.55c-2.6-2.45-4.07-5.82-4.07-9.4
		c0-7.17,5.83-13,13-13s13,5.83,13,13c0,3.6-1.48,6.98-4.1,9.43l0.68,0.64c1.25,1.11,1.68,2.89,1.04,4.42
		C23.42,29.56,21.93,30.56,20.38,30.56z M13.48,2.56c-6.07,0-11,4.93-11,11c0,3.37,1.54,6.51,4.22,8.61l0.95,0.75l-2.42,2.09
		c-0.58,0.52-0.78,1.4-0.51,2.23c0.33,0.79,1.09,1.32,1.95,1.32h13.7c0.77,0,1.53-0.53,1.89-1.31c0.3-0.72,0.09-1.57-0.55-2.14
		l-2.37-2.21l0.92-0.72c2.68-2.11,4.22-5.25,4.22-8.61C24.48,7.49,19.55,2.56,13.48,2.56z M13.48,20.56c-3.86,0-7-3.14-7-7
		s3.14-7,7-7s7,3.14,7,7S17.34,20.56,13.48,20.56z M13.48,8.56c-2.76,0-5,2.24-5,5s2.24,5,5,5s5-2.24,5-5S16.24,8.56,13.48,8.56z"/>
</g>
<g>
	<circle class="st1" cx="13.48" cy="13.56" r="6"/>
</g>
<g>
	<circle cx="13.48" cy="13.56" r="3.59"/>
</g>
<g>
	<circle class="st2" cx="15.74" cy="11.3" r="1.33"/>
</g>
</svg>
