<?xml version="1.0" encoding="utf-8"?>
<!-- Generator: Adobe Illustrator 26.3.1, SVG Export Plug-In . SVG Version: 6.00 Build 0)  -->
<svg version="1.1" id="레이어_1" xmlns="http://www.w3.org/2000/svg" xmlns:xlink="http://www.w3.org/1999/xlink" x="0px"
	 y="0px" viewBox="0 0 72 23.2" style="enable-background:new 0 0 72 23.2;" xml:space="preserve">
<style type="text/css">
	.st0{fill:#ECECEC;}
	.st1{fill:#008AFF;}
	.st2{fill:#FFFFFF;}
	.st3{enable-background:new    ;}
</style>
<g>
	<g>
		<path d="M69.4,23.1H7.9V2.6h61.6c1.5,0,2.7,1.2,2.7,2.7v15.1C72.1,22,70.9,23.1,69.4,23.1z"/>
	</g>
	<g>
		<g>
			<g>
				<g>
					<path class="st0" d="M15.9,17.2c2.2-1.7,3.6-4.3,3.6-7.3c0-5.1-4.2-9.3-9.3-9.3S0.9,4.9,0.9,9.9c0,2.9,1.4,5.6,3.6,7.3l-1.2,1
						c-0.7,0.6-0.9,1.6-0.6,2.5c0.4,0.9,1.2,1.5,2.2,1.5h10.6c0.9,0,1.8-0.6,2.2-1.5c0.4-0.9,0.1-1.9-0.6-2.5L15.9,17.2z M10.2,14.6
						c-2.5,0-4.6-2.1-4.6-4.6s2.1-4.6,4.6-4.6s4.6,2.1,4.6,4.6S12.7,14.6,10.2,14.6z"/>
				</g>
			</g>
			<g>
				<g>
					<path d="M15.5,23.1H4.9c-1.3,0-2.4-0.8-2.9-2c-0.4-1.3-0.1-2.6,0.8-3.4l0.5-0.4c-2-1.9-3.1-4.5-3.1-7.3c0-5.5,4.5-10,10-10
						s10,4.5,10,10c0,2.8-1.1,5.4-3.2,7.3l0.5,0.5c1,0.9,1.3,2.2,0.8,3.4C17.8,22.3,16.7,23.1,15.5,23.1z M10.2,1.4
						c-4.7,0-8.5,3.8-8.5,8.5c0,2.6,1.2,5,3.3,6.6l0.7,0.6l-1.9,1.6c-0.4,0.4-0.6,1.1-0.4,1.7c0.3,0.6,0.8,1,1.5,1h10.6
						c0.6,0,1.2-0.4,1.5-1c0.2-0.6,0.1-1.2-0.4-1.7L14.8,17l0.7-0.6c2.1-1.6,3.3-4.1,3.3-6.6C18.6,5.4,14.8,1.4,10.2,1.4z
						 M10.2,15.4c-3,0-5.4-2.4-5.4-5.4s2.4-5.4,5.4-5.4S15.6,7,15.6,10S13.1,15.4,10.2,15.4z M10.2,6.1c-2.1,0-3.9,1.7-3.9,3.9
						s1.7,3.9,3.9,3.9s3.9-1.7,3.9-3.9S12.3,6.1,10.2,6.1z"/>
				</g>
			</g>
		</g>
		<g>
			<g>
				<g>
					<circle class="st1" cx="10.2" cy="9.9" r="4.6"/>
				</g>
			</g>
		</g>
		<g>
			<g>
				<g>
					<circle cx="10.2" cy="9.9" r="2.8"/>
				</g>
			</g>
		</g>
		<g>
			<g>
				<g>
					<circle class="st2" cx="11.9" cy="8.2" r="1"/>
				</g>
			</g>
		</g>
	</g>
	<g class="st3">
		<path class="st2" d="M25.5,7.4c0,0.7,0,1.3-0.2,1.8c0.6,1,1.5,1.9,3,2.5l-0.9,1c-1.2-0.5-2.1-1.2-2.8-2.1c-0.7,1-1.7,1.8-2.8,2.4
			l-1-1c2.1-1.1,3.3-2.3,3.1-4.7H25.5z M30.7,18.5h-7.5v-3.2h5.8v-0.7h-5.8v-1.3h7.3v3.2h-5.8v0.7h6V18.5z M28.9,7.2h1.5v5.7h-1.5
			V7.2z"/>
		<path class="st2" d="M36.5,13.9V13h-4.6v-1.2h10.8V13H38v0.8h3v3h-6v0.6h6.3v1.2h-7.8v-3h6v-0.6h-6v-1.2H36.5z M33.5,11.2V7.5h7.4
			v3.7H33.5z M39.4,8.7h-4.3v1.4h4.3V8.7z"/>
		<path class="st2" d="M50.2,13.1v0.6c1,0,2-0.1,2.9-0.2v1.1c-1.7,0.2-4,0.4-5.8,0.4h-1.6v-1.1h1.5c0.4,0,0.9,0,1.4,0v-0.7
			c-1.3-0.2-2-0.8-2-1.5c0-0.9,1-1.5,2.8-1.5c1.8,0,2.8,0.6,2.8,1.5C52.2,12.4,51.4,13,50.2,13.1z M45.9,9.8V8.7h6.9v1.1H45.9z
			 M47.3,8.3V7.2h4.1v1.1H47.3z M53.3,18.7v-2h-6v-1.2h7.5v3.2H53.3z M50.7,11.6c0-0.3-0.3-0.5-1.3-0.5S48,11.4,48,11.6
			c0,0.2,0.3,0.5,1.3,0.5C50.3,12.2,50.7,11.9,50.7,11.6z M53.3,15V7.2h1.5v3.7h1.6v1.3h-1.6V15H53.3z"/>
		<path class="st2" d="M57.1,10.6c0-1.7,1.3-3,3-3c1.8,0,3.1,1.3,3.1,3c0,1.7-1.3,2.9-3.1,2.9S57.1,12.3,57.1,10.6z M58.7,10.6
			c0,1,0.6,1.6,1.5,1.6c0.9,0,1.5-0.6,1.5-1.6c0-1.1-0.6-1.7-1.5-1.7C59.3,8.9,58.7,9.6,58.7,10.6z M66.5,18.4H59v-3.5h1.5v2.2h6
			V18.4z M66.2,15.4h-1.5V7.2h1.5V15.4z"/>
	</g>
</g>
</svg>
