<?xml version="1.0" encoding="utf-8"?>
<!-- Generator: Adobe Illustrator 26.4.1, SVG Export Plug-In . SVG Version: 6.00 Build 0)  -->
<svg version="1.1" id="레이어_2" xmlns="http://www.w3.org/2000/svg" xmlns:xlink="http://www.w3.org/1999/xlink" x="0px"
	 y="0px" viewBox="0 0 323.9 126.9" style="enable-background:new 0 0 323.9 126.9;" xml:space="preserve">
<style type="text/css">
	.st0{fill:#161616;}
	.st1{fill:#FFFFFF;}
</style>
<path class="st0" d="M260.6,126.9H63.5C28.4,126.9,0,98.5,0,63.5v0C0,28.4,28.4,0,63.5,0l197.1,0c35,0,63.5,28.4,63.5,63.5v0
	C324,98.5,295.6,126.9,260.6,126.9z"/>
<g>
	<path class="st1" d="M98.2,74.5c0.3-0.4,1-0.1,1,0.5v8.7c-4.7,4.1-10.5,5.8-17.1,5.8c-15,0-23.9-10.5-23.9-27.2
		c0-17.1,10.6-27.3,24.8-27.3c6.7,0,11.6,1.2,15.9,5v8.7c0,0.6-0.6,0.9-1,0.5c-4.3-5-8.9-7-14.5-7c-9.3,0-16.2,6.7-16.2,19.8
		c0,13.5,5.6,20.1,16,20.1C88.9,82.2,94,79.4,98.2,74.5z"/>
	<path class="st1" d="M136.6,81.8V89h-31.5V35.8h8.7v46H136.6z"/>
	<path class="st1" d="M159.9,89.6c-14.7,0-23.3-11.8-23.3-27.1c0-15.2,8.5-27.3,23.3-27.3c14.8,0,23.4,12.1,23.4,27.3
		C183.3,77.8,174.7,89.6,159.9,89.6z M159.9,82.3c9.5,0,14.5-8.1,14.5-19.9c0-11.8-5-20-14.5-20c-9.4,0-14.3,8.2-14.3,20
		C145.6,74.2,150.5,82.3,159.9,82.3z"/>
	<path class="st1" d="M220.1,47.9c-3.6-3.4-7.8-5.6-12.9-5.6c-5.6,0-8.5,2-8.5,6.1c0,4,2.7,6.1,7.1,7.9l4.7,2.1
		c8.3,3.6,13.1,8.5,13.1,15.6c0,10.7-7.7,15.6-18.9,15.6c-6,0-11.3-1.4-15.3-5v-8.9c0-0.6,0.6-0.8,1-0.5c3.9,4.5,7.9,7,14.4,7
		c6.7,0,9.6-2.5,9.6-7.7c0-4-2.9-6.5-8.1-8.8l-4.7-2.1c-6.8-3-11.8-7-11.8-14.9c0-9,7-13.6,17.1-13.6c4.5,0,10,0.9,14.1,4.4v8
		C221.1,48,220.5,48.3,220.1,47.9z"/>
	<path class="st1" d="M265.7,89H232V35.8h33.7V43h-25.1v13.5H264v7.2h-23.4v18.1h25.1V89z"/>
</g>
</svg>
