<?xml version="1.0" encoding="utf-8"?>
<!-- Generator: Adobe Illustrator 26.4.1, SVG Export Plug-In . SVG Version: 6.00 Build 0)  -->
<svg version="1.1" id="레이어_1" xmlns="http://www.w3.org/2000/svg" xmlns:xlink="http://www.w3.org/1999/xlink" x="0px"
	 y="0px" viewBox="0 0 300 126.9" style="enable-background:new 0 0 300 126.9;" xml:space="preserve">
<style type="text/css">
	.st0{fill:#FF0000;}
	.st1{enable-background:new    ;}
	.st2{fill:#FFFFFF;}
	.st3{display:none;}
	.st4{display:inline;fill:#161616;}
</style>
<path class="st0" d="M236.5,126.9h-173C28.4,126.9,0,98.5,0,63.5l0,0C0,28.4,28.4,0,63.5,0h173.1c35,0,63.5,28.4,63.5,63.5l0,0
	C300,98.5,271.6,126.9,236.5,126.9z"/>
<g class="st1">
	<path class="st2" d="M84.8,89.6c-14.7,0-23.3-11.8-23.3-27.1c0-15.2,8.5-27.3,23.3-27.3c14.8,0,23.4,12.1,23.4,27.3
		C108.2,77.8,99.6,89.6,84.8,89.6z M84.8,82.3c9.5,0,14.5-8.1,14.5-19.9c0-11.8-5-20-14.5-20c-9.4,0-14.3,8.2-14.3,20
		C70.5,74.2,75.4,82.3,84.8,82.3z"/>
	<path class="st2" d="M149.9,51.9c0,10.7-7.4,17.8-18.6,17.8h-6.7V89h-8.7V35.8h15.1C143.1,35.8,149.9,42.7,149.9,51.9z M141.3,52.2
		c0-5.6-3.3-9.4-11.6-9.4h-5.2v19.7h4.5C136.7,62.6,141.3,58.6,141.3,52.2z"/>
	<path class="st2" d="M190.2,89h-33.7V35.8h33.7V43h-25.1v13.5h23.4v7.2h-23.4v18.1h25.1V89z"/>
	<path class="st2" d="M225.8,73l1.9,5.9l-0.1-5.9V35.8h8.2V89h-11.4l-16.9-37.2l-1.9-5.9l0.1,5.9V89h-8.2V35.8h11.4L225.8,73z"/>
</g>
<g id="레이어_2_00000168798186712029219050000011094348813559505304_" class="st3">
	<path class="st4" d="M580.6,126.9H383.5c-35,0-63.5-28.4-63.5-63.5l0,0c0-35,28.4-63.5,63.5-63.5h197.1c35,0,63.5,28.4,63.5,63.5
		l0,0C644,98.5,615.6,126.9,580.6,126.9z"/>
	
		<text transform="matrix(1 0 0 1 375.0634 85.894)" style="display:inline;fill:#FFFFFF; font-family:'NanumBarunGothicOTFBold-KSCpc-EUC-H'; font-size:68.8237px;">CLOSE</text>
</g>
</svg>
