<?xml version="1.0" encoding="utf-8"?>
<!-- Generator: Adobe Illustrator 26.4.1, SVG Export Plug-In . SVG Version: 6.00 Build 0)  -->
<svg version="1.1" id="레이어_1" xmlns="http://www.w3.org/2000/svg" xmlns:xlink="http://www.w3.org/1999/xlink" x="0px"
	 y="0px" viewBox="0 0 100 100" style="enable-background:new 0 0 100 100;" xml:space="preserve">
<style type="text/css">
	.st0{fill:url(#SVGID_1_);}
	.st1{fill:url(#SVGID_00000031209938756022649530000017470868797416723632_);}
	.st2{fill:url(#SVGID_00000110443001764673892820000003391921672052816819_);}
	.st3{fill:url(#SVGID_00000062898836238427795690000000220745882277215930_);}
	.st4{fill:url(#SVGID_00000044164194717298464250000003618191582322508963_);}
	.st5{fill:#FBDC00;}
	.st6{fill:url(#SVGID_00000090988204774479776880000002244513755372627632_);}
	.st7{opacity:0.4;fill:url(#SVGID_00000088826262084301378600000002103779551927821217_);}
	.st8{opacity:0.4;fill:url(#SVGID_00000010293418403097772060000015255324748208211113_);}
	.st9{fill:url(#SVGID_00000155835368061767563880000016033783111903435921_);}
</style>
<g>
	
		<linearGradient id="SVGID_1_" gradientUnits="userSpaceOnUse" x1="-171.5353" y1="25.6523" x2="-191.7028" y2="25.6523" gradientTransform="matrix(-1 0 0 1 -119.4513 0)">
		<stop  offset="0" style="stop-color:#005CEF"/>
		<stop  offset="0.1695" style="stop-color:#006CF4"/>
		<stop  offset="0.45" style="stop-color:#0081FA"/>
		<stop  offset="0.7284" style="stop-color:#008DFE"/>
		<stop  offset="1" style="stop-color:#0091FF"/>
	</linearGradient>
	<path class="st0" d="M74.7,26.7c0,0-6.6,3.9-24.7,3.9l2.1-3.5l20.7-6.3L74.7,26.7z"/>
	
		<linearGradient id="SVGID_00000036971884991890720000000012916160539835888301_" gradientUnits="userSpaceOnUse" x1="-171.4725" y1="22.7366" x2="-192.0314" y2="22.7366" gradientTransform="matrix(-1 0 0 1 -119.4513 0)">
		<stop  offset="0" style="stop-color:#00ACEE"/>
		<stop  offset="0.2777" style="stop-color:#00BBF5"/>
		<stop  offset="0.643" style="stop-color:#00C7FB"/>
		<stop  offset="1" style="stop-color:#00CBFD"/>
	</linearGradient>
	<path style="fill:url(#SVGID_00000036971884991890720000000012916160539835888301_);" d="M50,30.6c0,0-2.4-6.5,15.5-15.6
		c0,0,4.5-0.9,7.9,3.8c2.8,3.8,1.3,7.8,1.3,7.8s-5.1-1.1-11.2-0.5C54.9,27.2,50,30.6,50,30.6z"/>
	
		<linearGradient id="SVGID_00000083785225982511758770000008323333285413379716_" gradientUnits="userSpaceOnUse" x1="47.916" y1="25.6523" x2="27.7485" y2="25.6523">
		<stop  offset="0" style="stop-color:#005CEF"/>
		<stop  offset="0.1695" style="stop-color:#006CF4"/>
		<stop  offset="0.45" style="stop-color:#0081FA"/>
		<stop  offset="0.7284" style="stop-color:#008DFE"/>
		<stop  offset="1" style="stop-color:#0091FF"/>
	</linearGradient>
	<path style="fill:url(#SVGID_00000083785225982511758770000008323333285413379716_);" d="M25.3,26.7c0,0,6.6,3.9,24.7,3.9L47.9,27
		l-20.7-6.3L25.3,26.7z"/>
	
		<linearGradient id="SVGID_00000120519176422830893430000014095223925233273997_" gradientUnits="userSpaceOnUse" x1="42.2805" y1="31.8121" x2="56.1912" y2="86.6824">
		<stop  offset="0" style="stop-color:#E89C00"/>
		<stop  offset="0.2457" style="stop-color:#F0B700"/>
		<stop  offset="0.5004" style="stop-color:#F6CC00"/>
		<stop  offset="0.7533" style="stop-color:#FAD800"/>
		<stop  offset="1" style="stop-color:#FBDC00"/>
	</linearGradient>
	<path style="fill:url(#SVGID_00000120519176422830893430000014095223925233273997_);" d="M78.4,42.8v38.9c0,1.9-1.5,3.4-3.4,3.4H25
		c-1.9,0-3.4-1.5-3.4-3.4V42.8c0-1.9,1.5-3.4,3.4-3.4H75C76.9,39.4,78.4,40.9,78.4,42.8z"/>
	
		<linearGradient id="SVGID_00000033355006834193975900000000183820670657795737_" gradientUnits="userSpaceOnUse" x1="45.7543" y1="21.0225" x2="53.4073" y2="51.2093">
		<stop  offset="0" style="stop-color:#E89C00"/>
		<stop  offset="0.2457" style="stop-color:#F0B700"/>
		<stop  offset="0.5004" style="stop-color:#F6CC00"/>
		<stop  offset="0.7533" style="stop-color:#FAD800"/>
		<stop  offset="1" style="stop-color:#FBDC00"/>
	</linearGradient>
	<path style="fill:url(#SVGID_00000033355006834193975900000000183820670657795737_);" d="M78.4,46.6H21.6c-2.1,0-3.8-1.7-3.8-3.8
		v-9.9c0-2.1,1.7-3.8,3.8-3.8h56.8c2.1,0,3.8,1.7,3.8,3.8v9.9C82.2,44.8,80.5,46.6,78.4,46.6z"/>
	<rect x="21.6" y="46.6" class="st5" width="56.8" height="3.4"/>
	
		<linearGradient id="SVGID_00000082336510510588864620000004137078489951739291_" gradientUnits="userSpaceOnUse" x1="45.4661" y1="31.7379" x2="54.6131" y2="82.7686">
		<stop  offset="0" style="stop-color:#00ACEE"/>
		<stop  offset="0.2777" style="stop-color:#00BBF5"/>
		<stop  offset="0.643" style="stop-color:#00C7FB"/>
		<stop  offset="1" style="stop-color:#00CBFD"/>
	</linearGradient>
	<rect x="43" y="29" style="fill:url(#SVGID_00000082336510510588864620000004137078489951739291_);" width="14" height="56.1"/>
	
		<linearGradient id="SVGID_00000113332588592723939580000005662553913237790126_" gradientUnits="userSpaceOnUse" x1="42.7477" y1="57.0323" x2="40.1269" y2="57.0323">
		<stop  offset="0" style="stop-color:#E89C00"/>
		<stop  offset="0.2457" style="stop-color:#F0B700"/>
		<stop  offset="0.5004" style="stop-color:#F6CC00"/>
		<stop  offset="0.7533" style="stop-color:#FAD800"/>
		<stop  offset="1" style="stop-color:#FBDC00"/>
	</linearGradient>
	<polygon style="opacity:0.4;fill:url(#SVGID_00000113332588592723939580000005662553913237790126_);" points="39.8,85.1 39.8,29 
		43,29 43,85.1 	"/>
	
		<linearGradient id="SVGID_00000129916743540842359200000000665774295825829782_" gradientUnits="userSpaceOnUse" x1="-176.7037" y1="57.0323" x2="-179.3244" y2="57.0323" gradientTransform="matrix(-1 0 0 1 -119.4513 0)">
		<stop  offset="0" style="stop-color:#E89C00"/>
		<stop  offset="0.2457" style="stop-color:#F0B700"/>
		<stop  offset="0.5004" style="stop-color:#F6CC00"/>
		<stop  offset="0.7533" style="stop-color:#FAD800"/>
		<stop  offset="1" style="stop-color:#FBDC00"/>
	</linearGradient>
	<polygon style="opacity:0.4;fill:url(#SVGID_00000129916743540842359200000000665774295825829782_);" points="60.2,85.1 60.2,29 
		57,29 57,85.1 	"/>
	
		<linearGradient id="SVGID_00000157284901568426889080000001768549500678696361_" gradientUnits="userSpaceOnUse" x1="47.9789" y1="22.7366" x2="27.42" y2="22.7366">
		<stop  offset="0" style="stop-color:#00ACEE"/>
		<stop  offset="0.2777" style="stop-color:#00BBF5"/>
		<stop  offset="0.643" style="stop-color:#00C7FB"/>
		<stop  offset="1" style="stop-color:#00CBFD"/>
	</linearGradient>
	<path style="fill:url(#SVGID_00000157284901568426889080000001768549500678696361_);" d="M50,30.6c0,0,2.4-6.5-15.5-15.6
		c0,0-4.5-0.9-7.9,3.8c-2.8,3.8-1.3,7.8-1.3,7.8s5.1-1.1,11.2-0.5C45.1,27.2,50,30.6,50,30.6z"/>
</g>
</svg>
