<?xml version="1.0" encoding="utf-8"?>
<!-- Generator: Adobe Illustrator 26.4.1, SVG Export Plug-In . SVG Version: 6.00 Build 0)  -->
<svg version="1.1" id="레이어_4" xmlns="http://www.w3.org/2000/svg" xmlns:xlink="http://www.w3.org/1999/xlink" x="0px"
	 y="0px" viewBox="0 0 100 100" style="enable-background:new 0 0 100 100;" xml:space="preserve">
<style type="text/css">
	.st0{fill:#03BDF9;}
	.st1{fill:#F1F1F1;}
	.st2{fill:#FFFFFF;}
	.st3{fill:#0AB6F2;}
</style>
<path class="st0" d="M50,87.5L50,87.5c-20.7,0-37.5-16.8-37.5-37.5v0c0-20.7,16.8-37.5,37.5-37.5h0c20.7,0,37.5,16.8,37.5,37.5v0
	C87.5,70.7,70.7,87.5,50,87.5z"/>
<path class="st1" d="M73,27c-5.9-5.9-14-9.5-23-9.5h0V50L73,27z"/>
<path class="st2" d="M50,17.4L50,17.4c-9,0-17.1,3.6-23,9.5l23,23V17.4z"/>
<path class="st1" d="M27,27c-5.9,5.9-9.5,14-9.5,23v0H50L27,27z"/>
<path class="st2" d="M82.6,50L82.6,50c0-9-3.6-17.1-9.5-23L50,50H82.6z"/>
<path class="st1" d="M50,50l23,23c5.9-5.9,9.5-14,9.5-23H50z"/>
<path class="st2" d="M50,82.6L50,82.6c9,0,17.1-3.6,23-9.5L50,50V82.6z"/>
<path class="st1" d="M27,73c5.9,5.9,14,9.5,23,9.5h0V50L27,73z"/>
<path class="st2" d="M17.4,50c0,9,3.6,17.1,9.5,23l23-23H17.4z"/>
<path class="st3" d="M50,40.2L50,40.2c5.4,0,9.8,4.4,9.8,9.8v0c0,5.4-4.4,9.8-9.8,9.8h0c-5.4,0-9.8-4.4-9.8-9.8v0
	C40.2,44.6,44.6,40.2,50,40.2z"/>
</svg>
