<?xml version="1.0" encoding="utf-8"?>
<!-- Generator: Adobe Illustrator 26.4.1, SVG Export Plug-In . SVG Version: 6.00 Build 0)  -->
<svg version="1.1" id="레이어_3" xmlns="http://www.w3.org/2000/svg" xmlns:xlink="http://www.w3.org/1999/xlink" x="0px"
	 y="0px" viewBox="0 0 100 100" style="enable-background:new 0 0 100 100;" xml:space="preserve">
<style type="text/css">
	.st0{fill:#F0F0F0;}
	.st1{fill:#FFDF75;}
	.st2{fill:#FF978A;}
</style>
<path class="st0" d="M36.8,46.7L36.8,46.7l0-6.2c0-5.4,4.4-9.7,9.7-9.7h23.6v-2.7c0-5.4-4.4-9.7-9.7-9.7H20.8
	c-5.4,0-9.7,4.4-9.7,9.7v20.2c0,5.4,4.4,9.7,9.7,9.7h1.7v8.9c0,2.4,3.3,3.3,4.4,1.1l5.4-10h4.6L36.8,46.7L36.8,46.7z"/>
<path class="st1" d="M79.2,30.8h-9v3.5h0l0,0v14c0,5.4-4.4,9.7-9.7,9.7H40.2l0,0v0h-3.4v2.7c0,5.4,4.4,9.7,9.7,9.7h13.2l0,0v0h8
	l5.4,10c1.2,2.2,4.4,1.3,4.4-1.1v-8.9h1.7c5.4,0,9.7-4.4,9.7-9.7V40.5C88.9,35.1,84.6,30.8,79.2,30.8z"/>
<path class="st2" d="M40.2,58L40.2,58l20.2,0c5.4,0,9.7-4.4,9.7-9.7v-14l0,0h0v-3.5H46.6c-5.4,0-9.7,4.4-9.7,9.7v6.2h0l0,0V58
	L40.2,58L40.2,58z"/>
</svg>
