<?xml version="1.0" encoding="utf-8"?>
<!-- Generator: Adobe Illustrator 26.4.1, SVG Export Plug-In . SVG Version: 6.00 Build 0)  -->
<svg version="1.1" id="레이어_2" xmlns="http://www.w3.org/2000/svg" xmlns:xlink="http://www.w3.org/1999/xlink" x="0px"
	 y="0px" viewBox="0 0 100 100" style="enable-background:new 0 0 100 100;" xml:space="preserve">
<style type="text/css">
	.st0{fill:#FF978A;}
	.st1{fill:#FF7A6B;}
	.st2{fill:#FFDF75;}
	.st3{fill:#FFBC42;}
</style>
<path class="st0" d="M54.2,53.2l-5.5,11.9l-9.6,21c-0.8,1.7-3.2,1.7-4,0l-2.9-6.3l-6.7,1.9c-1.8,0.5-3.4-1.3-2.6-3.1l9.3-20.2
	l5.8-12.7L54.2,53.2z"/>
<path class="st1" d="M54.2,53.2l-5.5,11.9c-2.6-0.4-5-1.8-6.4-4.1c-0.6-0.9-1.7-1.5-2.8-1.5c-0.2,0-0.4,0-0.7,0.1
	c-0.6,0.1-1.2,0.2-1.9,0.2c-1.7,0-3.4-0.5-4.8-1.3l5.8-12.7L54.2,53.2z"/>
<path class="st0" d="M45.8,53.2l5.5,11.9l9.6,21c0.8,1.7,3.2,1.7,4,0l2.9-6.3l6.7,1.9c1.8,0.5,3.4-1.3,2.6-3.1l-9.3-20.2l-5.8-12.7
	L45.8,53.2z"/>
<path class="st1" d="M45.8,53.2l5.5,11.9c2.6-0.4,5-1.8,6.4-4.1c0.6-0.9,1.7-1.5,2.8-1.5c0.2,0,0.4,0,0.7,0.1
	c0.6,0.1,1.2,0.2,1.9,0.2c1.7,0,3.4-0.5,4.8-1.3l-5.8-12.7L45.8,53.2z"/>
<path class="st2" d="M55.3,15.4L55.3,15.4c1.4,2.1,4,3.2,6.5,2.7l0,0c4.5-0.9,8.4,3,7.5,7.5l0,0c-0.5,2.5,0.6,5.1,2.7,6.5l0,0
	c3.8,2.5,3.8,8.1,0,10.6l0,0c-2.1,1.4-3.2,4-2.7,6.5l0,0c0.9,4.5-3,8.4-7.5,7.5l0,0c-2.5-0.5-5.1,0.6-6.5,2.7l0,0
	c-2.5,3.8-8.1,3.8-10.6,0l0,0c-1.4-2.1-4-3.2-6.5-2.7l0,0c-4.5,0.9-8.4-3-7.5-7.5l0,0c0.5-2.5-0.6-5.1-2.7-6.5l0,0
	c-3.8-2.5-3.8-8.1,0-10.6l0,0c2.1-1.4,3.2-4,2.7-6.5l0,0c-0.9-4.5,3-8.4,7.5-7.5l0,0c2.5,0.5,5.1-0.6,6.5-2.7l0,0
	C47.2,11.6,52.8,11.6,55.3,15.4z"/>
<path class="st3" d="M52.2,27.8l1.4,3.5c0.3,0.8,1.1,1.4,2,1.5l3.7,0.3c2.1,0.2,3,2.8,1.4,4.2l-2.9,2.4c-0.7,0.6-1,1.5-0.8,2.4
	l0.9,3.6c0.5,2.1-1.8,3.7-3.6,2.6l-3.2-2c-0.8-0.5-1.7-0.5-2.5,0l-3.2,2c-1.8,1.1-4.1-0.5-3.6-2.6l0.9-3.6c0.2-0.9-0.1-1.8-0.8-2.4
	l-2.9-2.4c-1.6-1.4-0.8-4,1.4-4.2l3.7-0.3c0.9-0.1,1.7-0.6,2-1.5l1.4-3.5C48.6,25.8,51.4,25.8,52.2,27.8z"/>
</svg>
